SplineFontDB: 2.0
FontName: AtariSmall
FullName: Atari Small
FamilyName: Atari
Weight: Regular
Copyright: Copyright 2007 Gurkan Sengun\n
Comments: 2007-9-28: Created.
Version: 001.000
ItalicAngle: 0
UnderlinePosition: -100
UnderlineWidth: 50
Ascent: 800
Descent: 200
VerticalOrigin: 800
NeedsXUIDChange: 1
XUID: [1021 391 1473781890 2393105]
FSType: 0
OS2Version: 0
OS2_WeightWidthSlopeOnly: 0
OS2_UseTypoMetrics: 1
CreationTime: 1190984485
ModificationTime: 1193438471
OS2TypoAscent: 0
OS2TypoAOffset: 1
OS2TypoDescent: 0
OS2TypoDOffset: 1
OS2TypoLinegap: 90
OS2WinAscent: 0
OS2WinAOffset: 1
OS2WinDescent: 0
OS2WinDOffset: 1
HheadAscent: 0
HheadAOffset: 1
HheadDescent: 0
HheadDOffset: 1
OS2Vendor: 'PfEd'
Encoding: ISO8859-1
UnicodeInterp: none
NameList: Adobe Glyph List
DisplaySize: -24
AntiAlias: 0
FitToEm: 1
WinInfo: 0 20 19
BeginChars: 258 257
StartChar: C001
Encoding: 1 1 1
Width: 500
Flags: W
HStem: 300 125<0 125> 655 20G<250 375>
VStem: 250 125<50 175 550 675>
Back
Fore
250 675 m 1
 375 675 l 5
 375 550 l 1
 500 550 l 1
 500 425 l 1
 500 300 l 1
 500 175 l 1
 375 175 l 1
 375 50 l 1
 250 50 l 1
 250 175 l 1
 125 175 l 1
 125 300 l 1
 0 300 l 1
 0 425 l 1
 125 425 l 1
 125 550 l 1
 250 550 l 1
 250 675 l 1
EndSplineSet
EndChar
StartChar: C002
Encoding: 2 2 2
Width: 500
Flags: HW
HStem: -200 21G<250 375> -75 21G<125 250 375 500> 550 21G<125 145 250 375> 655 20G<250 270>
VStem: 125 375<425 550>
Back
Fore
250 675 m 1
 375 675 l 5
 375 550 l 1
 250 550 l 1
 250 675 l 1
125 550 m 1
 250 550 l 1
 250 425 l 1
 125 425 l 1
 125 550 l 1
375 550 m 1
 500 550 l 1
 500 425 l 1
 375 425 l 1
 375 550 l 1
250 425 m 1
 375 425 l 1
 375 300 l 1
 250 300 l 1
 250 425 l 1
125 300 m 1
 250 300 l 1
 250 175 l 1
 125 175 l 1
 125 300 l 1
375 300 m 1
 500 300 l 1
 500 175 l 1
 375 175 l 1
 375 300 l 1
250 175 m 1
 375 175 l 1
 375 50 l 1
 250 50 l 1
 250 175 l 1
125 50 m 1
 250 50 l 1
 250 -75 l 1
 125 -75 l 1
 125 50 l 1
375 50 m 1
 500 50 l 1
 500 -75 l 1
 375 -75 l 1
 375 50 l 1
250 -75 m 1
 375 -75 l 1
 375 -200 l 1
 250 -200 l 1
 250 -75 l 1
EndSplineSet
EndChar
StartChar: C003
Encoding: 3 3 3
Width: 500
Flags: W
HStem: -200 21G<375 500> 50 124<250 375> 426 124<250 375>
VStem: 125 124<175 426 550 800> 375 125<-200 50 550 800>
Back
Fore
125 800 m 1
 249 801 l 1
 250 550 l 1
 375 550 l 1
 375 675 l 1
 375 800 l 1
 500 800 l 1
 500 675 l 1
 500 550 l 1
 500 425 l 1
 500 300 l 1
 500 175 l 1
 500 50 l 1
 500 -75 l 1
 500 -200 l 1
 375 -200 l 1
 375 -75 l 1
 375 50 l 1
 250 50 l 1
 249 174 l 1
 378 174 l 1
 378 426 l 1
 249 426 l 1
 249 174 l 1
 125 175 l 1
 125 300 l 1
 125 425 l 1
 125 550 l 1
 125 675 l 1
 125 800 l 1
EndSplineSet
EndChar
StartChar: C004
Encoding: 4 4 4
Width: 500
Flags: W
HStem: -200 21G<250 375> 50 125<375 500> 300 125<375 500> 425 125<125 250> 675 125<125 250 250 375>
VStem: 0 125<175 425 550 675> 250 125<-200 50 175 300> 250 250<50 175 300 425>
Back
Fore
0 800 m 1xfd
 250 800 l 1xfd
 375 800 l 1
 375 675 l 1xfe
 250 675 l 1
 125 675 l 1
 125 550 l 1
 250 550 l 1
 250 425 l 1xfd
 375 425 l 1xfe
 500 425 l 1
 500 300 l 1xfd
 375 300 l 1
 375 175 l 1xfe
 500 175 l 1
 500 50 l 1xfd
 375 50 l 1
 375 -75 l 1
 375 -200 l 1
 250 -200 l 1
 250 -75 l 1
 250 50 l 1
 250 175 l 1
 250 300 l 1xfe
 250 425 l 1
 125 425 l 1
 125 300 l 1
 125 175 l 1
 0 175 l 1
 0 300 l 1
 0 425 l 1
 0 550 l 1
 0 675 l 1
 0 800 l 1xfd
EndSplineSet
EndChar
StartChar: C005
Encoding: 5 5 5
Width: 500
Flags: W
HStem: -200 21G<250 375> -75 125<375 500> 175 125<375 500> 425 125<125 375> 550 125<0 125> 675 125<125 375>
VStem: 0 125<550 675> 125 250<425 550 675 800> 250 125<-200 -75 50 175> 250 250<-75 50 175 300>
Back
Fore
125 800 m 1xfe40
 375 800 l 1xfe
 375 675 l 1xfe
 250 675 l 1
 125 675 l 1
 125 800 l 1xfe40
0 675 m 1
 125 675 l 5
 125 550 l 1
 0 550 l 1
 0 675 l 1
125 550 m 1
 375 550 l 1xfe
 375 425 l 1xfe
 250 425 l 1xfe40
 125 425 l 1
 125 550 l 1
250 300 m 1xfe40
 500 300 l 1
 500 175 l 1xfe40
 375 175 l 1
 375 50 l 1xfe80
 500 50 l 1
 500 -75 l 1xfe40
 375 -75 l 1
 375 -200 l 1
 250 -200 l 1
 250 -75 l 1
 250 50 l 1
 250 175 l 1xfe80
 250 300 l 1xfe40
EndSplineSet
EndChar
StartChar: C006
Encoding: 6 6 6
Width: 500
Flags: W
HStem: -200 21G<250 375> -75 125<375 500> 175 125<375 500> 300 125<125 250>
VStem: 0 126<425 800> 250 125<-200 -75 50 175> 250 250<-75 50 175 300>
Back
Fore
0 800 m 1xfa
 126 801 l 5
 125 675 l 1
 125 550 l 1
 125 425 l 1
 250 425 l 1xfa
 375 425 l 1
 375 300 l 1xfc
 500 300 l 1
 500 175 l 1xfa
 375 175 l 1
 375 50 l 1xfc
 500 50 l 1
 500 -75 l 1xfa
 375 -75 l 1
 375 -200 l 1
 250 -200 l 1
 250 -75 l 1
 250 50 l 1
 250 175 l 1xfc
 250 300 l 1
 125 300 l 1
 0 300 l 1
 0 425 l 1
 0 550 l 1
 0 675 l 1
 0 800 l 1xfa
EndSplineSet
EndChar
StartChar: C007
Encoding: 7 7 7
Width: 500
Flags: W
HStem: 655 20G<125 500>
VStem: 125 375<175 675>
Back
Fore
125 675 m 1
 375 675 l 1
 500 675 l 1
 500 550 l 1
 500 425 l 1
 500 300 l 1
 500 175 l 1
 375 175 l 1
 250 175 l 1
 125 175 l 1
 125 300 l 1
 125 425 l 1
 125 550 l 1
 125 675 l 1
EndSplineSet
EndChar
StartChar: C010
Encoding: 8 8 8
Width: 500
Flags: W
HStem: 50 125<125 500> 425 125<125 250 375 500> 655 20G<250 375>
VStem: 250 125<300 425 550 675>
Back
Fore
125 175 m 1
 375 175 l 1
 500 175 l 1
 500 50 l 1
 375 50 l 1
 250 50 l 1
 125 50 l 1
 125 175 l 1
250 675 m 1
 375 675 l 5
 375 550 l 1
 500 550 l 1
 500 425 l 1
 375 425 l 1
 375 300 l 1
 250 300 l 1
 250 425 l 1
 125 425 l 1
 125 550 l 1
 250 550 l 1
 250 675 l 1
EndSplineSet
EndChar
StartChar: C011
Encoding: 9 9 9
Width: 500
Flags: W
HStem: -200 125<375 500> 425 125<250 375> 550 125<125 250>
VStem: 0 126<300 550 675 800> 250 125<-75 300> 250 250<-200 -75 425 550> 375 125<300 425 550 800>
Back
Fore
0 800 m 1xf4
 126 801 l 5
 125 675 l 1
 250 675 l 1
 250 550 l 1xf4
 375 550 l 1
 375 675 l 1
 375 800 l 1
 500 800 l 1
 500 675 l 1xf2
 500 550 l 1
 500 425 l 1xf4
 500 300 l 1xf2
 375 300 l 1
 375 175 l 1
 375 50 l 1
 375 -75 l 1xf8
 500 -75 l 1
 500 -200 l 1xf4
 375 -200 l 1xf2
 250 -200 l 1xf4
 250 -75 l 1
 250 50 l 1
 250 175 l 1
 250 300 l 1
 375 300 l 1
 375 425 l 1xfa
 250 425 l 1
 250 550 l 1
 125 550 l 1
 125 425 l 1
 125 300 l 1
 0 300 l 1
 0 425 l 1
 0 550 l 1
 0 675 l 1
 0 800 l 1xf4
EndSplineSet
EndChar
StartChar: C012
Encoding: 10 10 10
Width: 500
Flags: W
HStem: -200 21G<375 500> 175 125<250 375> 300 125<125 250>
VStem: 0 126<425 800> 125 125<300 425> 250 125<425 800> 375 125<-200 175>
Back
Fore
0 800 m 1xf6
 126 801 l 5xf6
 125 675 l 1
 125 550 l 1
 125 425 l 1
 250 425 l 1
 250 550 l 1
 250 675 l 1
 250 800 l 1
 375 800 l 1
 375 675 l 1
 375 550 l 1
 375 425 l 1
 250 425 l 1
 250 300 l 1
 375 300 l 1
 500 300 l 1
 500 175 l 1
 500 50 l 1
 500 -75 l 1
 500 -200 l 1
 375 -200 l 1
 375 -75 l 1
 375 50 l 1
 375 175 l 1
 250 175 l 1
 250 300 l 1
 125 300 l 1
 125 425 l 1xee
 0 425 l 1
 0 550 l 1
 0 675 l 1
 0 800 l 1xf6
EndSplineSet
EndChar
StartChar: C013
Encoding: 11 11 11
Width: 500
Flags: W
HStem: 300 125<125 375>
VStem: 375 125<425 800>
Back
Fore
375 800 m 1
 500 801 l 5
 500 550 l 1
 500 425 l 1
 500 300 l 1
 375 300 l 1
 250 300 l 1
 125 300 l 1
 125 425 l 1
 250 425 l 1
 375 425 l 1
 375 550 l 1
 375 675 l 1
 375 800 l 1
EndSplineSet
EndChar
StartChar: C015
Encoding: 13 13 13
Width: 500
Flags: W
HStem: -200 21G<125 250> 300 125<250 375>
VStem: 125 125<-200 300>
Back
Fore
125 425 m 1
 375 425 l 1
 375 300 l 1
 250 300 l 1
 250 175 l 1
 250 50 l 1
 250 -75 l 1
 250 -200 l 1
 125 -200 l 1
 125 -75 l 1
 125 50 l 1
 125 175 l 1
 125 300 l 1
 125 425 l 1
EndSplineSet
EndChar
StartChar: C016
Encoding: 14 14 14
Width: 500
Flags: W
HStem: 300 125<250 375>
VStem: 125 124<425 800>
Back
Fore
125 800 m 1
 249 801 l 5
 250 550 l 1
 250 425 l 1
 375 425 l 1
 375 300 l 1
 250 300 l 1
 125 300 l 1
 125 425 l 1
 125 550 l 1
 125 675 l 1
 125 800 l 1
EndSplineSet
EndChar
StartChar: C017
Encoding: 15 15 15
Width: 500
Flags: W
HStem: -200 21G<250 375> 300 125<0 250 375 500>
VStem: 250 125<-200 300 425 800>
Back
Fore
250 800 m 1
 375 801 l 5
 375 550 l 1
 375 425 l 1
 500 425 l 1
 500 300 l 1
 375 300 l 1
 375 175 l 1
 375 50 l 1
 375 -75 l 1
 375 -200 l 1
 250 -200 l 1
 250 -75 l 1
 250 50 l 1
 250 175 l 1
 250 300 l 1
 125 300 l 1
 0 300 l 1
 0 425 l 1
 125 425 l 1
 250 425 l 1
 250 550 l 1
 250 675 l 1
 250 800 l 1
EndSplineSet
EndChar
StartChar: C020
Encoding: 16 16 16
Width: 500
Flags: W
HStem: 550 125<125 500>
Back
Fore
125 675 m 1
 375 675 l 1
 500 675 l 1
 500 550 l 1
 375 550 l 1
 250 550 l 1
 125 550 l 1
 125 675 l 1
EndSplineSet
EndChar
StartChar: C021
Encoding: 17 17 17
Width: 500
Flags: W
HStem: 425 125<125 500>
Back
Fore
125 550 m 1
 375 550 l 1
 500 550 l 1
 500 425 l 1
 375 425 l 1
 250 425 l 1
 125 425 l 1
 125 550 l 1
EndSplineSet
EndChar
StartChar: C022
Encoding: 18 18 18
Width: 500
Flags: W
HStem: 300 125<125 500>
Back
Fore
125 425 m 1
 375 425 l 1
 500 425 l 1
 500 300 l 1
 375 300 l 1
 250 300 l 1
 125 300 l 1
 125 425 l 1
EndSplineSet
EndChar
StartChar: C023
Encoding: 19 19 19
Width: 500
Flags: W
HStem: 175 125<125 500>
Back
Fore
125 300 m 1
 375 300 l 1
 500 300 l 1
 500 175 l 1
 375 175 l 1
 250 175 l 1
 125 175 l 1
 125 300 l 1
EndSplineSet
EndChar
StartChar: C024
Encoding: 20 20 20
Width: 500
Flags: W
HStem: 50 125<125 500>
Back
Fore
125 175 m 1
 375 175 l 1
 500 175 l 1
 500 50 l 1
 375 50 l 1
 250 50 l 1
 125 50 l 1
 125 175 l 1
EndSplineSet
EndChar
StartChar: C025
Encoding: 21 21 21
Width: 500
Flags: W
HStem: -200 21G<125 250> 300 125<250 375>
VStem: 125 124<-200 300 425 800>
Back
Fore
125 800 m 1
 249 801 l 5
 250 550 l 1
 250 425 l 1
 375 425 l 1
 375 300 l 1
 250 300 l 1
 250 175 l 1
 250 50 l 1
 250 -75 l 1
 250 -200 l 1
 125 -200 l 1
 125 -75 l 1
 125 50 l 1
 125 175 l 1
 125 300 l 1
 125 425 l 1
 125 550 l 1
 125 675 l 1
 125 800 l 1
EndSplineSet
EndChar
StartChar: C026
Encoding: 22 22 22
Width: 500
Flags: W
HStem: -200 21G<375 500> 300 125<125 375>
VStem: 375 125<-200 300 425 800>
Back
Fore
375 800 m 1
 500 801 l 5
 500 550 l 1
 500 425 l 1
 500 300 l 1
 500 175 l 1
 500 50 l 1
 500 -75 l 1
 500 -200 l 1
 375 -200 l 1
 375 -75 l 1
 375 50 l 1
 375 175 l 1
 375 300 l 1
 250 300 l 1
 125 300 l 1
 125 425 l 1
 250 425 l 1
 375 425 l 1
 375 550 l 1
 375 675 l 1
 375 800 l 1
EndSplineSet
EndChar
StartChar: C027
Encoding: 23 23 23
Width: 500
Flags: W
HStem: 175 125<0 250 375 500>
VStem: 250 125<300 800>
Back
Fore
250 800 m 1
 375 801 l 5
 375 550 l 1
 375 425 l 1
 375 300 l 1
 500 300 l 1
 500 175 l 1
 375 175 l 1
 250 175 l 1
 125 175 l 1
 0 175 l 1
 0 300 l 1
 125 300 l 1
 250 300 l 1
 250 425 l 1
 250 550 l 1
 250 675 l 1
 250 800 l 1
EndSplineSet
EndChar
StartChar: C030
Encoding: 24 24 24
Width: 500
Flags: W
HStem: -200 21G<250 375> 175 125<0 250 375 500>
VStem: 250 125<-200 175>
Back
Fore
0 300 m 1
 250 300 l 1
 375 300 l 1
 500 300 l 1
 500 175 l 1
 375 175 l 1
 375 50 l 1
 375 -75 l 1
 375 -200 l 1
 250 -200 l 1
 250 -75 l 1
 250 50 l 1
 250 175 l 1
 125 175 l 1
 0 175 l 1
 0 300 l 1
EndSplineSet
EndChar
StartChar: C031
Encoding: 25 25 25
Width: 500
Flags: W
HStem: -200 21G<250 375>
VStem: 250 125<-200 800>
Back
Fore
250 800 m 1
 375 801 l 5
 375 550 l 1
 375 425 l 1
 375 300 l 1
 375 175 l 1
 375 50 l 1
 375 -75 l 1
 375 -200 l 1
 250 -200 l 1
 250 -75 l 1
 250 50 l 1
 250 175 l 1
 250 300 l 1
 250 425 l 1
 250 550 l 1
 250 675 l 1
 250 800 l 1
EndSplineSet
EndChar
StartChar: C032
Encoding: 26 26 26
Width: 500
Flags: W
HStem: -75 125<125 375> 175 125<250 375> 300 125<125 250> 425 125<250 375> 550 125<375 500>
VStem: 125 125<300 425> 250 125<175 300 425 550> 375 125<50 175 550 675>
CounterMasks: 1 00
Back
Fore
375 675 m 1
 500 676 l 5
 500 550 l 1
 375 550 l 1
 375 675 l 1
250 550 m 1
 375 550 l 1
 375 425 l 1
 250 425 l 1
 250 550 l 1
125 425 m 1
 250 425 l 1
 250 300 l 1
 125 300 l 1
 125 425 l 1
250 300 m 1
 376 300 l 1
 375 175 l 1
 250 175 l 1
 250 300 l 1
375 175 m 1
 500 176 l 1
 500 50 l 1
 500 -75 l 1
 375 -75 l 1
 250 -75 l 1
 125 -75 l 1
 125 50 l 1
 250 50 l 1
 375 50 l 1
 375 175 l 1
EndSplineSet
EndChar
StartChar: C033
Encoding: 27 27 27
Width: 500
Flags: W
HStem: -75 125<250 500> 175 125<250 375> 300 125<375 500> 425 125<250 375> 550 125<125 250>
VStem: 125 125<50 175 550 675> 250 125<175 300 425 550> 375 125<300 425>
CounterMasks: 1 00
Back
Fore
125 675 m 1
 250 676 l 5
 250 550 l 1
 375 550 l 1
 375 425 l 1
 500 425 l 1
 500 300 l 1
 375 300 l 1
 375 175 l 1
 250 175 l 1
 250 50 l 1
 375 50 l 1
 500 50 l 1
 500 -75 l 1
 375 -75 l 1
 250 -75 l 1
 125 -75 l 1
 125 50 l 1
 125 175 l 1
 250 175 l 1
 250 300 l 1
 375 300 l 1
 375 425 l 1
 250 425 l 1
 250 550 l 1
 125 550 l 1
 125 675 l 1
EndSplineSet
EndChar
StartChar: C034
Encoding: 28 28 28
Width: 500
Flags: W
HStem: 550 125<0 125 250 375>
VStem: 125 125<50 550> 375 125<50 550>
Back
Fore
0 675 m 1
 250 675 l 1
 375 675 l 1
 500 675 l 1
 500 550 l 1
 500 425 l 1
 500 300 l 1
 500 175 l 1
 500 50 l 1
 375 50 l 1
 375 175 l 1
 375 300 l 1
 375 425 l 1
 375 550 l 1
 250 550 l 1
 250 425 l 1
 250 300 l 1
 250 175 l 1
 250 50 l 1
 125 50 l 1
 125 175 l 1
 125 300 l 1
 125 425 l 1
 125 550 l 1
 0 550 l 1
 0 675 l 1
EndSplineSet
EndChar
StartChar: C035
Encoding: 29 29 29
Width: 500
Flags: W
HStem: 175 125<0 125 375 500> 425 125<0 250> 655 20G<375 500>
VStem: 125 125<50 175> 250 125<300 425> 375 125<550 675>
CounterMasks: 1 00
Back
Fore
375 675 m 1
 500 675 l 5
 500 550 l 1
 500 425 l 1
 375 425 l 1
 375 300 l 1
 500 300 l 1
 500 175 l 1
 375 175 l 1
 250 175 l 1
 250 50 l 1
 125 50 l 1
 125 175 l 1
 0 175 l 1
 0 300 l 1
 125 300 l 1
 250 300 l 1
 250 425 l 1
 125 425 l 1
 0 425 l 1
 0 550 l 1
 125 550 l 1
 250 550 l 1
 375 550 l 1
 375 675 l 1
EndSplineSet
EndChar
StartChar: C036
Encoding: 30 30 30
Width: 500
Flags: W
HStem: -75 21G<125 250> 50 125<0 125> 175 125<250 375> 425 125<0 125 250 375> 675 125<250 500>
VStem: 125 125<-75 50 300 425 550 675> 375 125<50 175>
Back
Fore
250 800 m 1
 500 800 l 1
 500 675 l 1
 375 675 l 1
 250 675 l 1
 250 800 l 1
125 675 m 1
 250 675 l 5
 250 550 l 1
 375 550 l 1
 375 425 l 1
 250 425 l 1
 250 300 l 1
 375 300 l 1
 500 300 l 1
 500 175 l 1
 500 50 l 1
 375 50 l 1
 375 175 l 1
 250 175 l 1
 250 50 l 1
 250 -75 l 1
 125 -75 l 1
 125 50 l 1
 0 50 l 1
 0 175 l 1
 125 175 l 1
 125 300 l 1
 125 425 l 1
 0 425 l 1
 0 550 l 1
 125 550 l 1
 125 675 l 1
EndSplineSet
EndChar
StartChar: C037
Encoding: 31 31 31
Width: 500
Flags: W
HStem: 300 125<250 375>
VStem: 250 126<300 424>
Back
Fore
250 425 m 1
 376 424 l 5
 375 300 l 1
 250 300 l 1
 250 425 l 1
EndSplineSet
EndChar
StartChar: exclam
Encoding: 33 33 33
Width: 500
Flags: W
HStem: -75 125<250 375> 656 20G<-2144 375.92>
VStem: 250 126<-75 50 175 675>
Back
Fore
250 50 m 1
 376 50 l 1
 375 -75 l 1
 250 -75 l 1
 250 50 l 1
250 675 m 1
 376 676 l 5
 375 425 l 1
 375 300 l 1
 375 175 l 1
 250 175 l 1
 250 300 l 1
 250 425 l 1
 250 550 l 1
 250 675 l 1
EndSplineSet
EndChar
StartChar: quotedbl
Encoding: 34 34 34
Width: 500
Flags: W
HStem: 425 250<125 250 375 500>
VStem: 125 125<425 675> 375 125<425 675>
Back
Fore
375 675 m 1
 500 675 l 5
 500 425 l 1
 375 425 l 1
 375 550 l 1
 375 675 l 1
125 675 m 1
 250 675 l 1
 250 425 l 1
 125 425 l 1
 125 550 l 1
 125 675 l 1
EndSplineSet
EndChar
StartChar: numbersign
Encoding: 35 35 35
Width: 500
Flags: W
HStem: -75 21G<125 250 375 500> 50 126<250 375> 426 124<250 375> 656 20G<-2250 250 375 500>
VStem: 125 123<-75 50 176 426 550 675> 376 124<-75 50 176 426 550 675>
Back
Fore
376 426 m 1
 248 426 l 5
 248 176 l 1
 376 176 l 1
 376 426 l 1
125 675 m 1
 250 676 l 1
 250 550 l 1
 375 550 l 1
 375 675 l 1
 500 675 l 1
 500 550 l 1
 500 425 l 1
 500 300 l 1
 500 175 l 1
 500 50 l 1
 500 -75 l 1
 375 -75 l 1
 375 50 l 1
 250 50 l 1
 250 -75 l 1
 125 -75 l 1
 125 50 l 1
 125 175 l 1
 125 300 l 1
 125 425 l 1
 125 550 l 1
 125 675 l 1
EndSplineSet
EndChar
StartChar: dollar
Encoding: 36 36 36
Width: 500
Flags: W
HStem: -200 21G<250 375> 50 125<125 249> 300 125<250 375> 425 125<125 250 375 500>
VStem: 125 125<50 174 425 550> 250 125<-200 50 300 425 550 800> 375 125<50 300 425 549>
CounterMasks: 1 00
Back
Fore
250 800 m 1
 375 801 l 1
 375 550 l 1
 250 550 l 1
 250 675 l 1
 250 800 l 1
125 550 m 1
 250 550 l 1
 250 425 l 1
 125 425 l 1
 125 550 l 1
375 550 m 1
 500 549 l 5
 500 425 l 1
 375 425 l 1
 375 550 l 1
250 425 m 1
 375 425 l 1
 375 300 l 1
 250 300 l 1
 250 425 l 1
375 300 m 1
 500 300 l 1
 500 50 l 1
 375 50 l 1
 375 175 l 1
 375 300 l 1
125 175 m 1
 249 174 l 1
 250 50 l 1
 125 50 l 1
 125 175 l 1
250 50 m 1
 375 50 l 1
 375 -200 l 1
 250 -200 l 1
 250 -75 l 1
 250 50 l 1
EndSplineSet
EndChar
StartChar: percent
Encoding: 37 37 37
Width: 500
Flags: W
HStem: -75 125<375 500> 550 125<125 250>
VStem: 125 125<-75 175 550 675> 250 125<175 425> 375 125<-75 50 425 675>
CounterMasks: 1 00
Back
Fore
375 675 m 1
 500 676 l 1
 500 425 l 1
 375 425 l 1
 375 550 l 1
 375 675 l 1
250 425 m 1
 375 425 l 1
 375 175 l 1
 250 175 l 1
 250 300 l 1
 250 425 l 1
125 175 m 1
 250 175 l 1
 250 -75 l 1
 125 -75 l 1
 125 50 l 1
 125 175 l 1
375 50 m 1
 500 50 l 5
 500 -75 l 1
 375 -75 l 1
 375 50 l 1
125 675 m 1
 250 676 l 1
 250 550 l 1
 125 550 l 1
 125 675 l 1
EndSplineSet
EndChar
StartChar: ampersand
Encoding: 38 38 38
Width: 500
Flags: W
HStem: -75 125<375 500> 425 125<250 375> 550 125<125 250 375 500> 675 125<250 375>
VStem: 125 125<175 425 550 675> 250 125<425 550 675 800> 375 125<175 425 550 675>
CounterMasks: 1 00
Back
Fore
250 800 m 1
 375 800 l 1
 375 675 l 1
 250 675 l 1
 250 800 l 1
125 675 m 1
 250 675 l 1
 250 550 l 1
 125 550 l 1
 125 675 l 1
375 675 m 1
 500 675 l 5
 500 550 l 1
 375 550 l 1
 375 675 l 1
250 550 m 1
 375 550 l 1
 375 425 l 1
 250 425 l 1
 250 550 l 1
125 425 m 1
 250 425 l 1
 250 175 l 1
 375 175 l 1
 375 50 l 1
 500 50 l 1
 500 -75 l 1
 375 -75 l 1
 250 -75 l 1
 250 50 l 1
 125 50 l 1
 125 175 l 1
 125 300 l 1
 125 425 l 1
375 425 m 1
 500 425 l 1
 500 175 l 1
 375 175 l 1
 375 300 l 1
 375 425 l 1
EndSplineSet
EndChar
StartChar: quotesingle
Encoding: 39 39 39
Width: 500
Flags: W
HStem: 655 20G<250 375>
VStem: 250 125<425 675>
Back
Fore
250 675 m 1
 375 675 l 5
 375 550 l 1
 375 425 l 1
 250 425 l 1
 250 550 l 1
 250 675 l 1
EndSplineSet
EndChar
StartChar: parenleft
Encoding: 40 40 40
Width: 500
Flags: W
HStem: -75 125<250 375> 550 125<250 375>
VStem: 125 125<50 550> 250 126<-75 50 550 675>
Back
Fore
250 675 m 1
 376 676 l 5
 375 550 l 1
 250 550 l 1
 250 675 l 1
125 550 m 1
 250 550 l 1
 250 300 l 1
 250 175 l 1
 250 50 l 1
 125 50 l 1
 125 175 l 1
 125 300 l 1
 125 425 l 1
 125 550 l 1
250 50 m 1
 376 50 l 1
 375 -75 l 1
 250 -75 l 1
 250 50 l 1
EndSplineSet
EndChar
StartChar: parenright
Encoding: 41 41 41
Width: 500
Flags: W
HStem: -75 125<125 250> 550 125<125 250>
VStem: 125 125<-75 50 550 675> 250 125<50 550>
Back
Fore
125 675 m 1
 250 676 l 5
 250 550 l 1
 375 550 l 1
 375 425 l 1
 375 300 l 1
 375 175 l 1
 375 50 l 1
 250 50 l 1
 250 -75 l 1
 125 -75 l 1
 125 50 l 1
 250 50 l 1
 250 175 l 1
 250 300 l 1
 250 425 l 1
 250 550 l 1
 125 550 l 1
 125 675 l 1
EndSplineSet
EndChar
StartChar: asterisk
Encoding: 42 42 42
Width: 500
Flags: W
HStem: 50 125<125 250 375 500> 300 125<125 250 375 500> 550 125<125 250 375 500>
VStem: 125 125<50 175 550 675> 250 125<175 300 425 550> 375 125<50 175 550 675>
CounterMasks: 1 00
Back
Fore
125 675 m 1
 250 675 l 5
 250 550 l 1
 375 550 l 1
 375 675 l 1
 500 675 l 1
 500 550 l 1
 375 550 l 1
 375 425 l 1
 500 425 l 1
 500 300 l 1
 375 300 l 1
 375 175 l 1
 500 175 l 1
 500 50 l 1
 375 50 l 1
 375 175 l 1
 250 175 l 1
 250 50 l 1
 125 50 l 1
 125 175 l 1
 250 175 l 1
 250 300 l 1
 125 300 l 1
 125 425 l 1
 250 425 l 1
 250 550 l 1
 125 550 l 1
 125 675 l 1
EndSplineSet
EndChar
StartChar: plus
Encoding: 43 43 43
Width: 500
Flags: W
HStem: 300 125<125 250 375 500> 655 20G<250 375>
VStem: 250 125<50 300 425 675>
Back
Fore
250 675 m 1
 375 675 l 5
 375 425 l 1
 500 425 l 1
 500 300 l 1
 375 300 l 1
 375 175 l 1
 375 50 l 1
 250 50 l 1
 250 175 l 1
 250 300 l 1
 125 300 l 1
 125 425 l 1
 250 425 l 1
 250 550 l 1
 250 675 l 1
EndSplineSet
EndChar
StartChar: comma
Encoding: 44 44 44
Width: 500
Flags: W
HStem: -200 125<125 250>
VStem: 125 125<-200 -75> 250 125<-75 175>
Back
Fore
250 175 m 1
 375 175.5 l 1
 375 -75 l 1
 250 -75 l 1
 250 50 l 1
 250 175 l 1
125 -75 m 1
 250 -75 l 5
 250 -200 l 1
 125 -200 l 1
 125 -75 l 1
EndSplineSet
EndChar
StartChar: hyphen
Encoding: 45 45 45
Width: 500
Flags: W
HStem: 300 125<125 500>
Back
Fore
125 425 m 1
 375 425 l 1
 500 425 l 1
 500 300 l 1
 375 300 l 1
 250 300 l 1
 125 300 l 1
 125 425 l 1
EndSplineSet
EndChar
StartChar: period
Encoding: 46 46 46
Width: 500
Flags: W
HStem: -75 21G<250 375>
VStem: 250 125<-75 175>
Back
Fore
250 175 m 1
 375 175.5 l 5
 375 -75 l 1
 250 -75 l 1
 250 50 l 1
 250 175 l 1
EndSplineSet
EndChar
StartChar: slash
Encoding: 47 47 47
Width: 500
Flags: W
HStem: -75 21G<125 250> 656 20G<-2000 500>
VStem: 125 125<-75 175> 250 125<176 425> 375 125<425 675>
CounterMasks: 1 00
Back
Fore
375 675 m 1
 500 676 l 5
 500 425 l 1
 375 425 l 1
 375 550 l 1
 375 675 l 1
250 425 m 1
 375 425 l 1
 375 175 l 1
 250 175 l 1
 250 300 l 1
 250 425 l 1
125 175 m 1
 250 176 l 1
 250 -75 l 1
 125 -75 l 1
 125 50 l 1
 125 175 l 1
EndSplineSet
EndChar
StartChar: zero
Encoding: 48 48 48
Width: 500
Flags: W
HStem: -75 125<250 375> 302 123<250 375> 550 125<250 375>
VStem: 125 125<50 302 425 550> 250 126<-75 50 550 675> 375 125<50 302 425 550>
Back
Fore
250 675 m 1xf4
 376 676 l 1xf0
 375 550 l 1
 250 550 l 1
 250 675 l 1xf4
125 550 m 1
 250 550 l 1
 250 425 l 1
 375 425 l 1
 375 550 l 1
 500 550 l 1
 500 425 l 1
 500 300 l 1
 500 175 l 1
 500 50 l 1
 375 50 l 1
 375 -75 l 1
 250 -75 l 1
 250 50 l 1
 375 50 l 1xf4
 376 302 l 1xf0
 250 302 l 5
 250 50 l 1
 125 50 l 1
 125 175 l 1
 125 300 l 1
 125 425 l 1
 125 550 l 1
EndSplineSet
EndChar
StartChar: one
Encoding: 49 49 49
Width: 500
Flags: W
HStem: -75 125<125 250 375 500> 425 125<125 250> 656 20G<-2144 375.92>
VStem: 250 126<50 425 550 675>
Back
Fore
250 675 m 1
 376 676 l 5
 375 425 l 1
 375 300 l 1
 375 175 l 1
 375 50 l 1
 500 50 l 1
 500 -75 l 1
 375 -75 l 1
 250 -75 l 1
 125 -75 l 1
 125 50 l 1
 250 50 l 1
 250 175 l 1
 250 300 l 1
 250 425 l 1
 125 425 l 1
 125 550 l 1
 250 550 l 1
 250 675 l 1
EndSplineSet
EndChar
StartChar: two
Encoding: 50 50 50
Width: 500
Flags: W
HStem: -75 125<250 500> 175 125<250 375> 425 125<125 250> 550 125<250 375>
VStem: 125 125<50 175 425 550> 250 126<175 300 550 675> 375 125<300 550>
Back
Fore
250 675 m 1xfa
 376 676 l 1xf8
 375 550 l 1
 250 550 l 1
 250 675 l 1xfa
125 550 m 1
 250 550 l 1
 250 425 l 1
 125 425 l 1
 125 550 l 1
375 550 m 1xfa
 500 550 l 5
 500 300 l 1
 375 300 l 1
 375 425 l 1
 375 550 l 1xfa
250 300 m 1
 375 300 l 1
 375 175 l 1
 250 175 l 1
 250 300 l 1
125 175 m 1
 250 175 l 1
 250 50 l 1
 375 50 l 1
 500 50 l 1
 500 -75 l 1
 375 -75 l 1
 250 -75 l 1
 125 -75 l 1
 125 50 l 1
 125 175 l 1
EndSplineSet
EndChar
StartChar: three
Encoding: 51 51 51
Width: 500
Flags: W
HStem: -75 125<250 375> 50 125<125 250> 300 125<250 375> 550 125<125 375>
VStem: 125 125<50 175> 250 125<-75 50 300 425> 375 125<50 300 425 550>
CounterMasks: 1 00
Back
Fore
125 675 m 1
 375 675 l 1
 500 675 l 1
 500 550 l 1
 500 425 l 1
 375 425 l 1
 375 300 l 1
 500 300 l 1
 500 175 l 1
 500 50 l 1
 375 50 l 1
 375 -75 l 1
 250 -75 l 1
 250 50 l 1
 125 50 l 1
 125 175 l 1
 250 175 l 1
 250 50 l 1
 375 50 l 1
 375 175 l 1
 375 300 l 1
 250 300 l 1
 250 425 l 1
 375 425 l 1
 375 550 l 1
 250 550 l 1
 125 550 l 1
 125 675 l 1
EndSplineSet
EndChar
StartChar: four
Encoding: 52 52 52
Width: 500
Flags: W
HStem: -75 21G<375 500> 175 125<250 375> 425 125<250 375> 656 20G<-2000 500>
VStem: 125 125<300 425> 375 125<-75 175 300 425 550 675>
Back
Fore
375 675 m 1
 500 676 l 5
 500 425 l 1
 500 300 l 1
 500 175 l 1
 500 50 l 1
 500 -75 l 1
 375 -75 l 1
 375 50 l 1
 375 175 l 1
 250 175 l 1
 125 175 l 1
 125 300 l 1
 125 425 l 1
 250 425 l 1
 250 300 l 1
 375 300 l 1
 375 425 l 1
 250 425 l 1
 250 550 l 1
 375 550 l 1
 375 675 l 1
EndSplineSet
EndChar
StartChar: five
Encoding: 53 53 53
Width: 500
Flags: W
HStem: -75 125<250 375> 50 125<125 250> 300 125<250 375> 550 125<250 375 375 500>
VStem: 125 125<50 175 425 550> 250 125<-75 50> 375 125<50 300>
CounterMasks: 1 00
Back
Fore
125 675 m 1
 375 675 l 1
 500 675 l 1
 500 550 l 1
 375 550 l 1
 250 550 l 1
 250 425 l 1
 375 425 l 1
 375 300 l 1
 500 300 l 1
 500 175 l 1
 500 50 l 1
 375 50 l 1
 375 -75 l 1
 250 -75 l 1
 250 50 l 1
 125 50 l 1
 125 175 l 1
 250 175 l 1
 250 50 l 1
 375 50 l 1
 375 175 l 1
 375 300 l 1
 250 300 l 1
 125 300 l 1
 125 425 l 1
 125 550 l 1
 125 675 l 1
EndSplineSet
EndChar
StartChar: six
Encoding: 54 54 54
Width: 500
Flags: W
HStem: -75 125<250 375> 300 125<250 375> 550 125<250 500>
VStem: 125 125<50 300 425 550> 250 125<-75 50> 375 125<50 300>
CounterMasks: 1 00
Back
Fore
250 675 m 1
 500 675 l 1
 500 550 l 1
 375 550 l 1
 250 550 l 1
 250 675 l 1
125 550 m 1
 250 550 l 1
 250 425 l 1
 375 425 l 1
 375 300 l 1
 250 300 l 1
 250 175 l 1
 250 50 l 1
 125 50 l 1
 125 175 l 1
 125 300 l 1
 125 425 l 1
 125 550 l 1
375 300 m 1
 500 300 l 5
 500 50 l 1
 375 50 l 1
 375 175 l 1
 375 300 l 1
250 50 m 1
 375 50 l 1
 375 -75 l 1
 250 -75 l 1
 250 50 l 1
EndSplineSet
EndChar
StartChar: seven
Encoding: 55 55 55
Width: 500
Flags: W
HStem: -75 21G<250 375> 550 125<125 375>
VStem: 250 125<-75 300> 375 125<300 550>
Back
Fore
125 675 m 1
 375 675 l 1
 500 675 l 1
 500 550 l 1
 500 425 l 1
 500 300 l 1
 375 300 l 1
 375 175 l 1
 375 50 l 1
 375 -75 l 1
 250 -75 l 1
 250 50 l 1
 250 175 l 1
 250 300 l 1
 375 300 l 1
 375 425 l 1
 375 550 l 1
 250 550 l 1
 125 550 l 1
 125 675 l 1
EndSplineSet
EndChar
StartChar: eight
Encoding: 56 56 56
Width: 500
Flags: W
HStem: -75 125<250 375> 50 250<125 250 375 500> 300 125<250 375> 425 125<125 250 375 500> 550 125<250 375>
VStem: 125 125<50 300 425 550> 250 126<-75 50 300 425 550 675> 375 125<50 300 425 550>
Back
Fore
250 675 m 1xfd
 376 676 l 1xfc
 375 550 l 1
 250 550 l 1
 250 675 l 1xfd
125 550 m 1
 250 550 l 5
 250 425 l 1
 125 425 l 1
 125 550 l 1
375 550 m 1xfd
 500 550 l 1
 500 425 l 1
 375 425 l 1
 375 550 l 1xfd
250 425 m 1
 375 425 l 1
 375 300 l 1
 250 300 l 1
 250 425 l 1
125 300 m 1
 250 300 l 1
 250 50 l 1
 125 50 l 1
 125 175 l 1
 125 300 l 1
375 300 m 1
 500 300 l 1
 500 50 l 1
 375 50 l 1
 375 175 l 1
 375 300 l 1
250 50 m 1
 375 50 l 1
 375 -75 l 1
 250 -75 l 1
 250 50 l 1
EndSplineSet
EndChar
StartChar: nine
Encoding: 57 57 57
Width: 500
Flags: W
HStem: -75 125<125 375> 175 125<250 375> 550 125<250 375>
VStem: 125 125<300 550> 250 126<550 675> 375 125<50 175 300 550>
Back
Fore
250 675 m 1xf4
 376 676 l 5xf0
 375 550 l 1
 250 550 l 1
 250 675 l 1xf4
125 550 m 1
 250 550 l 1
 250 300 l 1
 125 300 l 1
 125 425 l 1
 125 550 l 1
375 550 m 1xf4
 500 550 l 1
 500 300 l 1
 500 175 l 1
 500 50 l 1
 375 50 l 1
 375 175 l 1
 250 175 l 1
 250 300 l 1
 375 300 l 1
 375 425 l 1
 375 550 l 1xf4
125 50 m 1
 375 50 l 1
 375 -75 l 1
 250 -75 l 1
 125 -75 l 1
 125 50 l 1
EndSplineSet
EndChar
StartChar: colon
Encoding: 58 58 58
Width: 500
Flags: W
HStem: 50 125<250 375> 425 125<250 375>
VStem: 250 126<50 175 425 550>
Back
Fore
250 175 m 1
 376 176 l 1
 375 50 l 1
 250 50 l 1
 250 175 l 1
250 550 m 1
 376 550 l 5
 375 425 l 1
 250 425 l 1
 250 550 l 1
EndSplineSet
EndChar
StartChar: semicolon
Encoding: 59 59 59
Width: 500
Flags: W
HStem: -75 125<125 250> 50 125<250 375> 425 125<250 375>
VStem: 125 125<-75 50> 250 126<50 175 425 550>
Back
Fore
250 550 m 1
 376 550 l 5
 375 425 l 1
 250 425 l 1
 250 550 l 1
250 175 m 1
 376 176 l 1
 375 50 l 1
 250 50 l 1
 250 175 l 1
125 50 m 1
 250 50 l 1
 250 -75 l 1
 125 -75 l 1
 125 50 l 1
EndSplineSet
EndChar
StartChar: less
Encoding: 60 60 60
Width: 500
Flags: W
HStem: -75 125<375 500> 50 125<250 375> 175 125<125 250> 300 125<250 375> 425 125<375 500>
VStem: 125 125<175 300> 250 125<50 175 300 425> 375 125<-75 50 425 550>
CounterMasks: 1 00
Back
Fore
375 550 m 1
 500 550 l 5
 500 425 l 1
 375 425 l 1
 375 550 l 1
250 425 m 1
 375 425 l 1
 375 300 l 1
 250 300 l 1
 250 425 l 1
125 300 m 1
 250 300 l 1
 250 175 l 1
 125 175 l 1
 125 300 l 1
250 175 m 1
 376 176 l 1
 375 50 l 1
 250 50 l 1
 250 175 l 1
375 50 m 1
 500 50 l 1
 500 -75 l 1
 375 -75 l 1
 375 50 l 1
EndSplineSet
EndChar
StartChar: equal
Encoding: 61 61 61
Width: 500
Flags: W
HStem: 175 125<125 500> 425 125<125 500>
Back
Fore
125 300 m 1
 375 300 l 1
 500 300 l 1
 500 175 l 1
 375 175 l 1
 250 175 l 1
 125 175 l 1
 125 300 l 1
125 550 m 1
 375 550 l 1
 500 550 l 1
 500 425 l 1
 375 425 l 1
 250 425 l 1
 125 425 l 1
 125 550 l 1
EndSplineSet
EndChar
StartChar: greater
Encoding: 62 62 62
Width: 500
Flags: W
HStem: -75 125<125 250> 50 125<250 375> 175 125<375 500> 300 125<250 375> 425 125<125 250>
VStem: 125 125<-75 50 425 550> 250 125<50 175 300 425> 375 125<175 300>
CounterMasks: 1 00
Back
Fore
125 550 m 1
 250 550 l 5
 250 425 l 1
 375 425 l 1
 375 300 l 1
 500 300 l 1
 500 175 l 1
 375 175 l 1
 375 50 l 1
 250 50 l 1
 250 -75 l 1
 125 -75 l 1
 125 50 l 1
 250 50 l 1
 250 175 l 1
 375 175 l 1
 375 300 l 1
 250 300 l 1
 250 425 l 1
 125 425 l 1
 125 550 l 1
EndSplineSet
EndChar
StartChar: question
Encoding: 63 63 63
Width: 500
Flags: W
HStem: -75 125<250 375> 175 125<250 375> 425 125<125 250> 550 125<250 375>
VStem: 125 125<425 550> 250 126<-75 50 175 300 550 675> 375 125<300 550>
Back
Fore
250 675 m 1xfa
 376 676 l 1xf8
 375 550 l 1
 250 550 l 1
 250 675 l 1xfa
125 550 m 1
 250 550 l 1
 250 425 l 1
 125 425 l 1
 125 550 l 1
375 550 m 1xfa
 500 550 l 5
 500 300 l 1
 375 300 l 1
 375 425 l 1
 375 550 l 1xfa
250 300 m 1
 375 300 l 1
 375 175 l 1
 250 175 l 1
 250 300 l 1
250 50 m 1
 376 50 l 1xf8
 375 -75 l 1
 250 -75 l 1
 250 50 l 1
EndSplineSet
EndChar
StartChar: at
Encoding: 64 64 64
Width: 500
Flags: W
HStem: -75 125<250 500> 550 125<250 375>
VStem: 125 125<50 550> 250 126<550 675> 375 125<300 550>
Back
Fore
250 675 m 1xe8
 376 676 l 5xe0
 375 550 l 1
 250 550 l 1
 250 675 l 1xe8
125 550 m 1
 250 550 l 1
 250 300 l 1
 250 175 l 1
 250 50 l 1
 125 50 l 1
 125 175 l 1
 125 300 l 1
 125 425 l 1
 125 550 l 1
375 550 m 1xe8
 500 550 l 1
 500 300 l 1
 375 300 l 1
 375 425 l 1
 375 550 l 1xe8
250 50 m 1
 500 50 l 1
 500 -75 l 1
 375 -75 l 1
 250 -75 l 1
 250 50 l 1
EndSplineSet
EndChar
StartChar: A
Encoding: 65 65 65
Width: 500
Flags: W
HStem: -75 21G<125 250 375 500> 175 125<250 375> 550 125<250 375>
VStem: 125 125<-75 175 300 550> 250 126<550 675> 375 125<-75 175 300 550>
Back
Fore
250 675 m 1xf4
 376 676 l 5xf0
 375 550 l 1
 250 550 l 1
 250 675 l 1xf4
125 550 m 1
 250 550 l 1
 250 300 l 1
 375 300 l 1
 375 425 l 1
 375 550 l 1
 500 550 l 1
 500 425 l 1
 500 300 l 1
 500 175 l 1
 500 50 l 1
 500 -75 l 1
 375 -75 l 1
 375 50 l 1
 375 175 l 1xf4
 250 175 l 1
 250 50 l 1
 250 -75 l 1
 125 -75 l 1
 125 50 l 1
 125 175 l 1
 125 300 l 1
 125 425 l 1
 125 550 l 1
EndSplineSet
EndChar
StartChar: B
Encoding: 66 66 66
Width: 500
Flags: W
HStem: -75 125<250 375> 300 124<250 375> 425 125<376 500> 550 125<250 375>
VStem: 125 125<50 300 424 550> 125 250<-75 50 300 424 550 675> 376 124<50 300 425 550>
Back
Fore
125 675 m 1xf6
 375 675 l 1xf6
 376 550 l 1
 250 550 l 1
 250 424 l 1xfa
 376 424 l 1
 376 550 l 1
 500 550 l 1
 500 425 l 1
 375 425 l 1xf6
 376 300 l 1
 500 300 l 1
 500 175 l 1
 500 50 l 1
 376 50 l 1
 376 300 l 1
 250 300 l 5
 250 50 l 1xfa
 376 50 l 1
 375 -75 l 1xf6
 250 -75 l 1xfa
 125 -75 l 1xf6
 125 50 l 1
 125 175 l 1
 125 300 l 1
 125 425 l 1
 125 550 l 1xfa
 125 675 l 1xf6
EndSplineSet
EndChar
StartChar: C
Encoding: 67 67 67
Width: 500
Flags: W
HStem: -75 125<250 375> 50 125<375 500> 425 125<375 500> 550 125<250 375>
VStem: 125 125<50 550> 250 126<-75 50 550 675> 375 125<50 175 425 550>
Back
Fore
250 675 m 1xfa
 376 676 l 5xf8
 375 550 l 1
 250 550 l 1
 250 675 l 1xfa
125 550 m 1
 250 550 l 1
 250 300 l 1
 250 175 l 1
 250 50 l 1
 125 50 l 1
 125 175 l 1
 125 300 l 1
 125 425 l 1
 125 550 l 1
375 550 m 1xfa
 500 550 l 1
 500 425 l 1
 375 425 l 1
 375 550 l 1xfa
375 175 m 1
 500 176 l 1
 500 50 l 1
 375 50 l 1
 375 175 l 1
250 50 m 1
 375 50 l 1
 375 -75 l 1
 250 -75 l 1
 250 50 l 1
EndSplineSet
EndChar
StartChar: D
Encoding: 68 68 68
Width: 500
Flags: W
HStem: -75 125<250 375> 550 125<250 375>
VStem: 125 125<50 550> 125 250<-75 50 550 675> 375 125<50 550>
Back
Fore
125 675 m 1xd8
 375 675 l 1xd8
 376 550 l 1
 250 550 l 1
 250 50 l 1xe8
 375 50 l 5
 376 550 l 1
 500 550 l 1
 500 425 l 1
 500 300 l 1
 500 175 l 1
 500 50 l 1
 375 50 l 1
 375 -75 l 1xd8
 250 -75 l 1xe8
 125 -75 l 1xd8
 125 50 l 1
 125 175 l 1
 125 300 l 1
 125 425 l 1
 125 550 l 1xe8
 125 675 l 1xd8
EndSplineSet
EndChar
StartChar: E
Encoding: 69 69 69
Width: 500
Flags: W
HStem: -75 125<250 500> 300 125<250 500> 550 125<250 500>
VStem: 125 125<50 300 425 550> 125 375<-75 50 300 425 550 675>
Back
Fore
125 675 m 1xe8
 375 675 l 1
 500 675 l 1
 500 550 l 1xe8
 375 550 l 1
 250 550 l 1
 250 425 l 1xf0
 375 425 l 1
 500 425 l 1
 500 300 l 1xe8
 375 300 l 1
 250 300 l 1
 250 175 l 1
 250 50 l 1xf0
 375 50 l 1
 500 50 l 1
 500 -75 l 1xe8
 375 -75 l 1
 250 -75 l 1xf0
 125 -75 l 1xe8
 125 50 l 1
 125 175 l 1
 125 300 l 1
 125 425 l 1
 125 550 l 1xf0
 125 675 l 1xe8
EndSplineSet
EndChar
StartChar: F
Encoding: 70 70 70
Width: 500
Flags: W
HStem: -75 21G<125 250> 300 125<250 500> 550 125<250 500>
VStem: 125 125<-75 300 425 550>
Back
Fore
125 675 m 1
 375 675 l 1
 500 675 l 1
 500 550 l 1
 375 550 l 1
 250 550 l 1
 250 425 l 1
 375 425 l 1
 500 425 l 1
 500 300 l 1
 375 300 l 1
 250 300 l 1
 250 175 l 1
 250 50 l 1
 250 -75 l 1
 125 -75 l 1
 125 50 l 1
 125 175 l 1
 125 300 l 1
 125 425 l 1
 125 550 l 1
 125 675 l 1
EndSplineSet
EndChar
StartChar: G
Encoding: 71 71 71
Width: 500
Flags: W
HStem: -75 125<250 375> 425 125<375 500> 550 125<250 375>
VStem: 125 125<50 550> 250 126<-75 50 550 675> 375 125<50 300 425 550>
Back
Fore
250 675 m 1xf4
 376 676 l 1xf0
 375 550 l 1
 250 550 l 1
 250 675 l 1xf4
125 550 m 1
 250 550 l 5
 250 425 l 1
 250 300 l 1
 250 175 l 1
 250 50 l 1
 125 50 l 1
 125 175 l 1
 125 300 l 1
 125 425 l 1
 125 550 l 1
375 550 m 1xf4
 500 550 l 1
 500 425 l 1
 375 425 l 1
 375 550 l 1xf4
375 300 m 1
 500 300 l 1
 500 175 l 1
 500 50 l 1
 375 50 l 1
 375 175 l 1
 375 300 l 1
250 50 m 1
 375 50 l 1
 375 -75 l 1
 250 -75 l 1
 250 50 l 1
EndSplineSet
EndChar
StartChar: H
Encoding: 72 72 72
Width: 500
Flags: W
HStem: -75 21G<125 250 375 500> 300 125<250 375> 656 20G<-2250 250 375 500>
VStem: 125 125<-75 300 425 675> 375 125<-75 300 425 675>
Back
Fore
125 675 m 1
 250 676 l 5
 250 425 l 1
 375 425 l 1
 375 550 l 1
 375 675 l 1
 500 675 l 1
 500 550 l 1
 500 425 l 1
 500 300 l 1
 500 175 l 1
 500 50 l 1
 500 -75 l 1
 375 -75 l 1
 375 50 l 1
 375 175 l 1
 375 300 l 1
 250 300 l 1
 250 175 l 1
 250 50 l 1
 250 -75 l 1
 125 -75 l 1
 125 50 l 1
 125 175 l 1
 125 300 l 1
 125 425 l 1
 125 550 l 1
 125 675 l 1
EndSplineSet
EndChar
StartChar: I
Encoding: 73 73 73
Width: 500
Flags: W
HStem: -75 125<125 250 375 500> 550 125<125 250 375 500>
VStem: 250 125<50 550>
Back
Fore
125 675 m 1
 375 675 l 1
 500 675 l 1
 500 550 l 1
 375 550 l 1
 375 425 l 1
 375 300 l 1
 375 175 l 1
 375 50 l 1
 500 50 l 1
 500 -75 l 1
 375 -75 l 1
 250 -75 l 1
 125 -75 l 1
 125 50 l 1
 250 50 l 1
 250 175 l 1
 250 300 l 1
 250 425 l 1
 250 550 l 1
 125 550 l 1
 125 675 l 1
EndSplineSet
EndChar
StartChar: J
Encoding: 74 74 74
Width: 500
Flags: W
HStem: -75 125<250 375> 50 125<125 250> 656 20G<-2000 500>
VStem: 125 125<50 175> 250 125<-75 50> 375 125<50 675>
CounterMasks: 1 00
Back
Fore
375 675 m 1
 500 676 l 1
 500 425 l 1
 500 300 l 1
 500 175 l 1
 500 50 l 1
 375 50 l 1
 375 175 l 1
 375 300 l 1
 375 425 l 1
 375 550 l 1
 375 675 l 1
125 175 m 1
 250 176 l 5
 250 50 l 1
 125 50 l 1
 125 175 l 1
250 50 m 1
 375 50 l 1
 375 -75 l 1
 250 -75 l 1
 250 50 l 1
EndSplineSet
EndChar
StartChar: K
Encoding: 75 75 75
Width: 500
Flags: W
HStem: -75 21G<125 250 375 500> 300 125<250 375> 656 20G<-2250 250 375 500>
VStem: 125 125<-75 300 425 675> 375 125<-75 300 425 675>
Back
Fore
125 675 m 1
 250 676 l 5
 250 425 l 1
 375 425 l 1
 375 550 l 1
 375 675 l 1
 500 675 l 1
 500 550 l 1
 500 425 l 1
 375 425 l 1
 375 300 l 1
 500 300 l 1
 500 175 l 1
 500 50 l 1
 500 -75 l 1
 375 -75 l 1
 375 50 l 1
 375 175 l 1
 375 300 l 1
 250 300 l 1
 250 175 l 1
 250 50 l 1
 250 -75 l 1
 125 -75 l 1
 125 50 l 1
 125 175 l 1
 125 300 l 1
 125 425 l 1
 125 550 l 1
 125 675 l 1
EndSplineSet
EndChar
StartChar: L
Encoding: 76 76 76
Width: 500
Flags: W
HStem: -75 125<250 500> 656 20G<-2250 250>
VStem: 125 125<50 675>
Back
Fore
125 675 m 1
 250 676 l 5
 250 425 l 1
 250 300 l 1
 250 175 l 1
 250 50 l 1
 375 50 l 1
 500 50 l 1
 500 -75 l 1
 375 -75 l 1
 250 -75 l 1
 125 -75 l 1
 125 50 l 1
 125 175 l 1
 125 300 l 1
 125 425 l 1
 125 550 l 1
 125 675 l 1
EndSplineSet
EndChar
StartChar: M
Encoding: 77 77 77
Width: 500
Flags: W
HStem: -75 21G<125 250 375 500> 425 125<250 375> 656 20G<-2250 250 375 500>
VStem: 125 125<-75 425 550 675> 375 125<-75 425 550 675>
Back
Fore
125 675 m 1
 250 676 l 5
 250 550 l 1
 375 550 l 1
 375 675 l 1
 500 675 l 1
 500 550 l 1
 500 425 l 1
 500 300 l 1
 500 175 l 1
 500 50 l 1
 500 -75 l 1
 375 -75 l 1
 375 50 l 1
 375 175 l 1
 375 300 l 1
 375 425 l 1
 250 425 l 1
 250 300 l 1
 250 175 l 1
 250 50 l 1
 250 -75 l 1
 125 -75 l 1
 125 50 l 1
 125 175 l 1
 125 300 l 1
 125 425 l 1
 125 550 l 1
 125 675 l 1
EndSplineSet
EndChar
StartChar: N
Encoding: 78 78 78
Width: 500
Flags: W
HStem: -75 21G<125 250> 530 20G<125 250> 656 20G<-2000 500>
VStem: 125 125<-75 175 425 550> 375 125<50 175 425 675>
Back
Fore
375 675 m 1
 500 676 l 5
 500 550 l 1
 500 425 l 1
 500 300 l 1
 500 175 l 1
 500 50 l 1
 375 50 l 1
 375 175 l 1
 250 175 l 1
 250 50 l 1
 250 -75 l 1
 125 -75 l 1
 125 50 l 1
 125 175 l 1
 125 300 l 1
 125 425 l 1
 125 550 l 1
 250 550 l 1
 250 425 l 1
 375 425 l 1
 375 550 l 1
 375 675 l 1
EndSplineSet
EndChar
StartChar: O
Encoding: 79 79 79
Width: 500
Flags: W
HStem: -75 125<250 375> 550 125<250 375>
VStem: 125 125<50 550> 250 126<-75 50 550 675> 375 125<50 550>
Back
Fore
250 675 m 1xe8
 376 676 l 1xe0
 375 550 l 1
 250 550 l 1
 250 675 l 1xe8
125 550 m 1
 250 550 l 5
 250 300 l 1
 250 175 l 1
 250 50 l 1
 125 50 l 1
 125 175 l 1
 125 300 l 1
 125 425 l 1
 125 550 l 1
375 550 m 1xe8
 500 550 l 1
 500 300 l 1
 500 175 l 1
 500 50 l 1
 375 50 l 1
 375 175 l 1
 375 300 l 1
 375 425 l 1
 375 550 l 1xe8
250 50 m 1
 375 50 l 1
 375 -75 l 1
 250 -75 l 1
 250 50 l 1
EndSplineSet
EndChar
StartChar: P
Encoding: 80 80 80
Width: 500
Flags: W
HStem: -75 21G<125 250> 175 125<250 375> 550 125<248 375>
VStem: 125 250<175 300 550 675> 125 123<-75 175 300 550> 375 125<300 550>
Back
Fore
248 550 m 25xec
 248 300 l 25xec
 375 300 l 25
 375 550 l 25xf4
 248 550 l 25xec
125 675 m 1xf4
 375 675 l 1
 375 550 l 1
 500 550 l 1
 500 425 l 1
 500 300 l 1
 375 300 l 1
 375 175 l 1xf4
 250 175 l 1
 250 50 l 1
 250 -75 l 1
 125 -75 l 1
 125 50 l 1xec
 125 175 l 1
 125 300 l 1xf4
 125 425 l 1xec
 125 550 l 1
 125 675 l 1xf4
EndSplineSet
EndChar
StartChar: Q
Encoding: 81 81 81
Width: 500
Flags: W
HStem: -75 125<375 500> 550 125<250 375>
VStem: 125 125<175 550> 250 126<550 675> 375 125<175 550>
Back
Fore
250 675 m 1xe8
 376 676 l 5xe0
 375 550 l 1
 250 550 l 1
 250 675 l 1xe8
125 550 m 1
 250 550 l 1
 250 300 l 1
 250 175 l 1
 375 175 l 1
 375 50 l 1
 500 50 l 1
 500 -75 l 1
 375 -75 l 1xe8
 250 -75 l 1
 250 50 l 1
 125 50 l 1
 125 175 l 1
 125 300 l 1
 125 425 l 1
 125 550 l 1
375 550 m 1
 500 550 l 1
 500 300 l 1
 500 175 l 1
 375 175 l 1
 375 300 l 1
 375 425 l 1
 375 550 l 1
EndSplineSet
EndChar
StartChar: R
Encoding: 82 82 82
Width: 500
Flags: W
HStem: -75 21G<125 250 375 500> 175 125<250 375> 550 125<250 375>
VStem: 125 250<175 300 550 675> 125 125<-75 175 300 550> 376 124<-75 175 300 550>
Back
Fore
250 550 m 29xec
 250 300 l 25xec
 376 300 l 25
 375 550 l 25xf4
 250 550 l 29xec
125 675 m 1xf4
 375 675 l 1
 375 550 l 1
 500 550 l 1
 500 425 l 1
 500 300 l 1
 375 300 l 1
 375 175 l 1
 500 175 l 1
 500 50 l 1
 500 -75 l 1
 375 -75 l 1
 375 50 l 1
 375 175 l 1xf4
 250 175 l 1
 250 50 l 1
 250 -75 l 1
 125 -75 l 1
 125 50 l 1xec
 125 175 l 1
 125 300 l 1xf4
 125 425 l 1xec
 125 550 l 1
 125 675 l 1xf4
EndSplineSet
EndChar
StartChar: S
Encoding: 83 83 83
Width: 500
Flags: HW
HStem: -75 125<250 375> 50 125<125 250> 425 125<125 250 375 500> 550 125<250 375>
VStem: 125 125<50 175 425 550> 250 126<-75 50 300 386 550 675> 375 125<50 300 425 550>
Back
Fore
250 675 m 1xfa
 376 676 l 1xf8
 375 550 l 1
 250 550 l 1
 250 675 l 1xfa
125 550 m 1
 250 550 l 1
 250 425 l 1
 125 425 l 1
 125 550 l 1
375 550 m 1xfa
 500 550 l 1
 500 425 l 1
 375 425 l 1
 375 550 l 1xfa
250 425 m 1
 375 425 l 5xf8
 375 300 l 1
 250 300 l 1
 250 425 l 1
375 300 m 1xfa
 500 300 l 1
 500 50 l 1
 375 50 l 1
 375 175 l 1
 375 300 l 1xfa
125 175 m 1
 250 176 l 1
 250 50 l 1
 125 50 l 1
 125 175 l 1
250 50 m 1
 375 50 l 1
 375 -75 l 1
 250 -75 l 1
 250 50 l 1
EndSplineSet
EndChar
StartChar: T
Encoding: 84 84 84
Width: 500
Flags: W
HStem: -75 21G<250 375> 550 125<125 250 375 500>
VStem: 250 125<-75 550>
Back
Fore
125 675 m 1
 375 675 l 1
 500 675 l 1
 500 550 l 1
 375 550 l 1
 375 425 l 1
 375 300 l 1
 375 175 l 1
 375 50 l 1
 375 -75 l 1
 250 -75 l 1
 250 50 l 1
 250 175 l 1
 250 300 l 1
 250 425 l 1
 250 550 l 1
 125 550 l 1
 125 675 l 1
EndSplineSet
EndChar
StartChar: U
Encoding: 85 85 85
Width: 500
Flags: W
HStem: -75 125<250 375> 656 20G<-2250 250 375 500>
VStem: 125 125<50 675> 375 125<50 675>
Back
Fore
125 675 m 1
 250 676 l 5
 250 425 l 1
 250 300 l 1
 250 175 l 1
 250 50 l 1
 375 50 l 1
 375 175 l 1
 375 300 l 1
 375 425 l 1
 375 550 l 1
 375 675 l 1
 500 675 l 1
 500 550 l 1
 500 425 l 1
 500 300 l 1
 500 175 l 1
 500 50 l 1
 500 -75 l 1
 375 -75 l 1
 250 -75 l 1
 125 -75 l 1
 125 50 l 1
 125 175 l 1
 125 300 l 1
 125 425 l 1
 125 550 l 1
 125 675 l 1
EndSplineSet
EndChar
StartChar: V
Encoding: 86 86 86
Width: 500
Flags: W
HStem: -75 125<250 375> 656 20G<-2250 250 375 500>
VStem: 125 125<50 675> 250 125<-75 50> 375 125<50 675>
CounterMasks: 1 00
Back
Fore
125 675 m 1
 250 676 l 5
 250 425 l 1
 250 300 l 1
 250 175 l 1
 250 50 l 1
 375 50 l 1
 375 175 l 1
 375 300 l 1
 375 425 l 1
 375 550 l 1
 375 675 l 1
 500 675 l 1
 500 550 l 1
 500 425 l 1
 500 300 l 1
 500 175 l 1
 500 50 l 1
 375 50 l 1
 375 -75 l 1
 250 -75 l 1
 250 50 l 1
 125 50 l 1
 125 175 l 1
 125 300 l 1
 125 425 l 1
 125 550 l 1
 125 675 l 1
EndSplineSet
EndChar
StartChar: W
Encoding: 87 87 87
Width: 500
Flags: W
HStem: -75 21G<125 250 375 500> 50 125<250 375> 656 20G<-2250 250 375 500>
VStem: 125 125<-75 50 175 675> 375 125<-75 50 175 675>
Back
Fore
125 675 m 1
 250 676 l 5
 250 425 l 1
 250 300 l 1
 250 175 l 1
 375 175 l 1
 375 300 l 1
 375 425 l 1
 375 550 l 1
 375 675 l 1
 500 675 l 1
 500 550 l 1
 500 425 l 1
 500 300 l 1
 500 175 l 1
 500 50 l 1
 500 -75 l 1
 375 -75 l 1
 375 50 l 1
 250 50 l 1
 250 -75 l 1
 125 -75 l 1
 125 50 l 1
 125 175 l 1
 125 300 l 1
 125 425 l 1
 125 550 l 1
 125 675 l 1
EndSplineSet
EndChar
StartChar: X
Encoding: 88 88 88
Width: 500
Flags: W
HStem: -75 21G<125 250 375 500> 300 125<250 375> 425 250<125 250 375 500>
VStem: 125 125<-75 300 425 675> 250 125<300 425> 375 125<-75 300 425 675>
CounterMasks: 1 00
Back
Fore
125 675 m 1
 250 676 l 5
 250 425 l 1
 375 425 l 1
 375 550 l 1
 375 675 l 1
 500 675 l 1
 500 550 l 1
 500 425 l 1
 375 425 l 1
 375 300 l 1
 500 300 l 1
 500 175 l 1
 500 50 l 1
 500 -75 l 1
 375 -75 l 1
 375 50 l 1
 375 175 l 1
 375 300 l 1
 250 300 l 1
 250 175 l 1
 250 50 l 1
 250 -75 l 1
 125 -75 l 1
 125 50 l 1
 125 175 l 1
 125 300 l 1
 250 300 l 1
 250 425 l 1
 125 425 l 1
 125 550 l 1
 125 675 l 1
EndSplineSet
EndChar
StartChar: Y
Encoding: 89 89 89
Width: 500
Flags: W
HStem: -75 21G<250 375> 425 250<125 250 375 500>
VStem: 125 125<425 675> 250 125<-75 425> 375 125<425 675>
CounterMasks: 1 00
Back
Fore
125 675 m 1
 250 676 l 5
 250 425 l 1
 375 425 l 1
 375 550 l 1
 375 675 l 1
 500 675 l 1
 500 550 l 1
 500 425 l 1
 375 425 l 1
 375 300 l 1
 375 175 l 1
 375 50 l 1
 375 -75 l 1
 250 -75 l 1
 250 50 l 1
 250 175 l 1
 250 300 l 1
 250 425 l 1
 125 425 l 1
 125 550 l 1
 125 675 l 1
EndSplineSet
EndChar
StartChar: Z
Encoding: 90 90 90
Width: 500
Flags: W
HStem: -75 125<250 500> 550 125<125 375>
VStem: 125 125<50 175> 250 125<175 425> 375 125<425 550>
CounterMasks: 1 00
Back
Fore
125 675 m 1
 375 675 l 1
 500 675 l 1
 500 550 l 1
 500 425 l 1
 375 425 l 1
 375 175 l 5
 250 175 l 1
 250 50 l 1
 375 50 l 1
 500 50 l 1
 500 -75 l 1
 375 -75 l 1
 250 -75 l 1
 125 -75 l 1
 125 50 l 1
 125 175 l 1
 250 175 l 1
 250 425 l 1
 375 425 l 1
 375 550 l 1
 250 550 l 1
 125 550 l 1
 125 675 l 1
EndSplineSet
EndChar
StartChar: bracketleft
Encoding: 91 91 91
Width: 500
Flags: W
HStem: -75 125<250 375> 550 125<250 375>
VStem: 125 125<50 550> 125 250<-75 50 550 675>
Back
Fore
125 675 m 1xd0
 375 675 l 1
 375 550 l 1xd0
 250 550 l 1
 250 425 l 1
 250 300 l 1
 250 175 l 1
 250 50 l 1xe0
 375 50 l 1
 375 -75 l 1xd0
 250 -75 l 1xe0
 125 -75 l 1xd0
 125 50 l 1
 125 175 l 1
 125 300 l 1
 125 425 l 1
 125 550 l 1xe0
 125 675 l 1xd0
EndSplineSet
EndChar
StartChar: backslash
Encoding: 92 92 92
Width: 500
Flags: W
HStem: -75 21G<375 500> 656 20G<-2250 250>
VStem: 125 125<425 675> 250 125<175 425> 375 125<-75 175>
CounterMasks: 1 00
Back
Fore
125 675 m 1
 250 676 l 5
 250 425 l 1
 375 425 l 1
 375 300 l 1
 375 175 l 1
 500 175 l 1
 500 50 l 1
 500 -75 l 1
 375 -75 l 1
 375 50 l 1
 375 175 l 1
 250 175 l 1
 250 300 l 1
 250 425 l 1
 125 425 l 1
 125 550 l 1
 125 675 l 1
EndSplineSet
EndChar
StartChar: bracketright
Encoding: 93 93 93
Width: 500
Flags: W
HStem: -75 125<125 250> 550 125<125 250>
VStem: 125 250<-75 50 550 675> 250 125<50 550>
Back
Fore
125 675 m 1xe0
 375 675 l 1
 375 550 l 1xe0
 375 425 l 1
 375 300 l 1
 375 175 l 1xd0
 375 50 l 1
 375 -75 l 1xe0
 250 -75 l 1xd0
 125 -75 l 1
 125 50 l 1xe0
 250 50 l 1
 250 175 l 1
 250 300 l 1
 250 425 l 1
 250 550 l 1xd0
 125 550 l 1
 125 675 l 1xe0
EndSplineSet
EndChar
StartChar: asciicircum
Encoding: 94 94 94
Width: 500
Flags: W
HStem: 425 125<125 250 375 500> 550 125<250 375>
VStem: 125 125<425 550> 250 125<550 675> 375 125<425 550>
CounterMasks: 1 00
Back
Fore
250 675 m 1
 375 675 l 1
 375 550 l 1
 250 550 l 1
 250 675 l 1
125 550 m 1
 250 550 l 1
 250 425 l 1
 125 425 l 1
 125 550 l 1
375 550 m 1
 500 550 l 5
 500 425 l 1
 375 425 l 1
 375 550 l 1
EndSplineSet
EndChar
StartChar: underscore
Encoding: 95 95 95
Width: 500
Flags: W
HStem: -200 125<0 500>
Back
Fore
0 -75 m 1
 250 -75 l 1
 375 -75 l 1
 500 -75 l 1
 500 -200 l 1
 375 -200 l 1
 250 -200 l 1
 125 -200 l 1
 0 -200 l 1
 0 -75 l 1
EndSplineSet
EndChar
StartChar: grave
Encoding: 96 96 96
Width: 500
Flags: W
HStem: 425 125<250 375> 550 125<125 250>
VStem: 125 125<550 675> 250 125<425 550>
Back
Fore
125 675 m 1
 250 675 l 5
 250 550 l 1
 375 550 l 1
 375 425 l 1
 250 425 l 1
 250 550 l 1
 125 550 l 1
 125 675 l 1
EndSplineSet
EndChar
StartChar: a
Encoding: 97 97 97
Width: 500
Flags: W
HStem: -75 125<250 376> 50 125<125 250> 175 125<250 375> 425 125<125 375>
VStem: 125 125<50 175> 250 250<-75 50 176 300> 376 124<50 176 300 425>
Back
Fore
376 50 m 25xfa
 376 176 l 25
 250 175 l 29
 250 50 l 25
 376 50 l 25xfa
125 550 m 1
 375 550 l 1
 375 425 l 1
 500 425 l 1xfa
 500 300 l 1xf8
 500 175 l 1xfa
 500 50 l 1xf8
 500 -75 l 1xf8
 375 -75 l 1
 250 -75 l 1
 250 50 l 1
 125 50 l 1
 125 175 l 1
 250 175 l 1
 250 300 l 5
 375 300 l 1
 375 425 l 1
 250 425 l 1
 125 425 l 1
 125 550 l 1
EndSplineSet
EndChar
StartChar: b
Encoding: 98 98 98
Width: 500
Flags: W
HStem: -75 125<250 375> 300 125<250 375> 656 20G<-2250 250>
VStem: 125 125<50 300 425 675> 376 124<50 300>
Back
Fore
125 675 m 1
 250 676 l 1
 250 425 l 1
 375 425 l 1
 376 300 l 1
 250 300 l 5
 250 50 l 1
 376 50 l 1
 375 300 l 1
 500 300 l 1
 500 50 l 1
 375 50 l 1
 375 -75 l 1
 125 -75 l 1
 125 675 l 1
EndSplineSet
EndChar
StartChar: c
Encoding: 99 99 99
Width: 500
Flags: W
HStem: -75 125<250 500> 425 125<250 500>
VStem: 125 125<50 425> 250 250<-75 50 425 550>
Back
Fore
250 550 m 1
 500 550 l 1
 500 425 l 1
 375 425 l 1
 250 425 l 1
 250 550 l 1
125 425 m 1
 250 425 l 5
 250 175 l 1
 250 50 l 1
 125 50 l 1
 125 175 l 1
 125 300 l 1
 125 425 l 1
250 50 m 1
 500 50 l 1
 500 -75 l 1
 375 -75 l 1
 250 -75 l 1
 250 50 l 1
EndSplineSet
EndChar
StartChar: d
Encoding: 100 100 100
Width: 500
Flags: W
HStem: -75 125<250 375> 300 125<250 375> 655 20G<375 500>
VStem: 125 125<50 300> 250 250<-75 50 300 425> 375 125<50 300 425 675>
Back
Fore
375 675 m 1xf4
 500 675 l 1xf4
 500 425 l 1xf0
 500 300 l 1xf0
 500 175 l 1xf4
 500 50 l 1xf0
 500 -75 l 1xf0
 375 -75 l 1
 250 -75 l 1
 250 50 l 1
 375 50 l 1
 375 175 l 1
 375 300 l 1
 250 300 l 1
 250 425 l 1
 375 425 l 1
 375 550 l 1
 375 675 l 1xf4
125 300 m 1
 250 300 l 5
 250 174 l 1
 250 50 l 1
 125 50 l 1
 125 175 l 1
 125 300 l 1
EndSplineSet
EndChar
StartChar: e
Encoding: 101 101 101
Width: 500
Flags: W
HStem: -75 125<250 500> 175 125<250 375> 425 125<250 375>
VStem: 125 125<50 175 300 425> 250 126<425 550> 375 125<300 425>
CounterMasks: 1 00
Back
Fore
250 550 m 1xf4
 376 550 l 1xf0
 375 425 l 5
 250 425 l 5
 250 550 l 1xf4
125 425 m 1
 250 425 l 5
 250 300 l 5
 375 300 l 5
 375 425 l 5
 500 425 l 1
 500 300 l 1
 500 175 l 1
 375 175 l 1
 250 175 l 1
 250 50 l 1
 375 50 l 1
 500 50 l 1
 500 -75 l 1
 375 -75 l 1xf4
 250 -75 l 1
 250 50 l 1
 125 50 l 1
 125 175 l 1
 125 300 l 1
 125 425 l 1
EndSplineSet
EndChar
StartChar: f
Encoding: 102 102 102
Width: 500
Flags: W
HStem: -75 21G<250 375> 300 125<125 250 375 500> 550 125<375 500>
VStem: 250 125<-75 300 425 550> 375 125<550 675>
Back
Fore
375 675 m 1
 500 676 l 5
 500 550 l 1
 375 550 l 1
 375 675 l 1
250 550 m 1
 375 550 l 1
 375 425 l 1
 500 425 l 1
 500 300 l 1
 375 300 l 1
 375 175 l 1
 375 50 l 1
 375 -75 l 1
 250 -75 l 1
 250 50 l 1
 250 175 l 1
 250 300 l 1
 125 300 l 1
 125 425 l 1
 250 425 l 1
 250 550 l 1
EndSplineSet
EndChar
StartChar: g
Encoding: 103 103 103
Width: 500
Flags: W
HStem: -200 125<125 375> 50 125<250 375> 425 125<250 375>
VStem: 125 125<175 425> 250 250<50 175 425 550> 375 125<-75 50 175 425>
Back
Fore
250 550 m 1xf4
 500 550 l 1xf0
 500 425 l 1xf0
 500 300 l 1xf4
 500 175 l 1xf0
 500 50 l 1xf0
 500 -75 l 1
 375 -75 l 1
 375 50 l 1
 250 50 l 1
 250 175 l 1
 375 175 l 1
 375 300 l 1
 375 425 l 1
 250 425 l 1
 250 550 l 1xf4
125 425 m 1
 250 425 l 5
 250 175 l 1
 125 175 l 1
 125 300 l 1
 125 425 l 1
125 -75 m 1
 375 -75 l 1
 375 -200 l 1xf4
 250 -200 l 1
 125 -200 l 1
 125 -75 l 1
EndSplineSet
EndChar
StartChar: h
Encoding: 104 104 104
Width: 500
Flags: W
HStem: -75 21G<125 250 375 500> 300 125<250 375> 656 20G<-2250 250>
VStem: 125 125<-75 300 425 675> 375 125<-75 300>
Back
Fore
125 675 m 1
 250 676 l 5
 250 425 l 1
 375 425 l 1
 375 300 l 1
 500 300 l 1
 500 175 l 1
 500 50 l 1
 500 -75 l 1
 375 -75 l 1
 375 50 l 1
 375 175 l 1
 375 300 l 1
 250 300 l 1
 250 175 l 1
 250 50 l 1
 250 -75 l 1
 125 -75 l 1
 125 50 l 1
 125 175 l 1
 125 300 l 1
 125 425 l 1
 125 550 l 1
 125 675 l 1
EndSplineSet
EndChar
StartChar: i
Encoding: 105 105 105
Width: 500
Flags: W
HStem: -75 125<125 250 375 500> 300 125<125 250> 550 125<250 375>
VStem: 250 126<50 300 550 675>
Back
Fore
250 675 m 1
 376 676 l 5
 375 550 l 1
 250 550 l 1
 250 675 l 1
125 425 m 1
 375 425 l 1
 375 300 l 1
 375 175 l 1
 375 50 l 1
 500 50 l 1
 500 -75 l 1
 375 -75 l 1
 250 -75 l 1
 125 -75 l 1
 125 50 l 1
 250 50 l 1
 250 175 l 1
 250 300 l 1
 125 300 l 1
 125 425 l 1
EndSplineSet
EndChar
StartChar: j
Encoding: 106 106 106
Width: 500
Flags: W
HStem: -200 125<125 375> 300 125<250 375> 550 125<375 500>
VStem: 375 125<-75 300 550 675>
Back
Fore
375 675 m 1
 500 675 l 5
 500 550 l 1
 375 550 l 1
 375 675 l 1
250 425 m 1
 500 425 l 1
 500 300 l 1
 500 175 l 1
 500 50 l 1
 500 -75 l 1
 375 -75 l 1
 375 50 l 1
 375 175 l 1
 375 300 l 1
 250 300 l 1
 250 425 l 1
125 -75 m 1
 375 -75 l 1
 375 -200 l 1
 250 -200 l 1
 125 -200 l 1
 125 -75 l 1
EndSplineSet
EndChar
StartChar: k
Encoding: 107 107 107
Width: 500
Flags: W
HStem: -75 21G<125 250 375 500> 175 125<250 375> 300 125<375 500> 656 20G<-2250 250>
VStem: 125 125<-75 175 300 675> 375 125<-75 175 300 425>
Back
Fore
125 675 m 1
 250 676 l 5
 250 425 l 1
 250 300 l 1
 375 300 l 1
 375 425 l 1
 500 425 l 1
 500 300 l 1
 375 300 l 1
 375 175 l 1
 500 175 l 1
 500 50 l 1
 500 -75 l 1
 375 -75 l 1
 375 50 l 1
 375 175 l 1
 250 175 l 1
 250 50 l 1
 250 -75 l 1
 125 -75 l 1
 125 50 l 1
 125 175 l 1
 125 300 l 1
 125 425 l 1
 125 550 l 1
 125 675 l 1
EndSplineSet
EndChar
StartChar: l
Encoding: 108 108 108
Width: 500
Flags: W
HStem: -75 21G<250 375> 656 20G<-2144 375.92>
VStem: 250 126<-75 675>
Back
Fore
250 675 m 1
 376 676 l 5
 375 425 l 1
 375 300 l 1
 375 175 l 1
 375 50 l 1
 375 -75 l 1
 250 -75 l 1
 250 50 l 1
 250 175 l 1
 250 300 l 1
 250 425 l 1
 250 550 l 1
 250 675 l 1
EndSplineSet
EndChar
StartChar: m
Encoding: 109 109 109
Width: 500
Flags: W
HStem: -75 21G<125 250 375 500> 300 125<250 375> 530 20G<125 250 375 500>
VStem: 125 125<-75 300 425 550> 375 125<-75 300 425 550>
Back
Fore
125 550 m 1
 250 550 l 5
 250 425 l 1
 375 425 l 1
 375 550 l 1
 500 550 l 1
 500 425 l 1
 500 300 l 1
 500 175 l 1
 500 50 l 1
 500 -75 l 1
 375 -75 l 1
 375 50 l 1
 375 175 l 1
 375 300 l 1
 250 300 l 1
 250 175 l 1
 250 50 l 1
 250 -75 l 1
 125 -75 l 1
 125 50 l 1
 125 175 l 1
 125 300 l 1
 125 425 l 1
 125 550 l 1
EndSplineSet
EndChar
StartChar: n
Encoding: 110 110 110
Width: 500
Flags: W
HStem: -75 21G<125 250 375 500> 425 125<250 375>
VStem: 125 125<-75 425> 375 125<-75 425>
Back
Fore
125 550 m 1
 375 550 l 1
 375 425 l 1
 500 425 l 1
 500 300 l 1
 500 175 l 1
 500 50 l 1
 500 -75 l 1
 375 -75 l 1
 375 50 l 1
 375 175 l 1
 375 300 l 1
 375 425 l 1
 250 425 l 1
 250 300 l 1
 250 175 l 1
 250 50 l 1
 250 -75 l 1
 125 -75 l 1
 125 50 l 1
 125 175 l 1
 125 300 l 1
 125 425 l 1
 125 550 l 1
EndSplineSet
EndChar
StartChar: o
Encoding: 111 111 111
Width: 500
Flags: W
HStem: -75 125<250 375> 425 125<250 375>
VStem: 125 125<50 425> 250 126<-75 50 425 550> 375 125<50 424>
Back
Fore
250 550 m 1xe8
 376 550 l 1xe0
 375 425 l 1
 250 425 l 1
 250 550 l 1xe8
125 425 m 1
 250 425 l 1
 250 175 l 1
 250 50 l 1
 125 50 l 1
 125 175 l 1
 125 300 l 1
 125 425 l 1
375 425 m 1xe8
 500 424 l 1
 500 175 l 1
 500 50 l 1
 375 50 l 1
 375 175 l 1
 375 300 l 1
 375 425 l 1xe8
250 50 m 2
 375 50 l 5
 375 -75 l 2
 250 -75 l 1
 250 50 l 2
EndSplineSet
EndChar
StartChar: p
Encoding: 112 112 112
Width: 500
Flags: HW
HStem: -200 21G<125 250> 50 126<250 375> 424 126<250 375>
VStem: 125 125<-200 50 176 424> 125 250<50 175 424 550> 375 125<175 424>
Back
Fore
250 424 m 1,0,-1
250 176 m 1,1,-1
 250 176 l 5,2,-1
 250 424 l 1,3,-1
125 550 m 1,4,-1
 375 550 l 1,5,-1
 376 424 l 1,6,-1
 250 424 l 1,7,-1
 250 176 l 1,8,-1
 375 175 l 1,9,-1
 376 424 l 1,10,-1
 500 425 l 1,11,-1
 500 300 l 1,12,-1
 500 175 l 1,13,-1
 375 175 l 1,14,-1
 375 50 l 1,15,-1
 250 50 l 1,16,-1
 250 -75 l 1,17,-1
 250 -200 l 1,18,-1
 125 -200 l 1,19,-1
 125 -75 l 1,20,-1
 125 50 l 1,21,-1
 125 175 l 1,22,-1
 125 300 l 1,23,-1
 125 425 l 1,24,-1
 125 550 l 1,4,-1
EndSplineSet
EndChar
StartChar: q
Encoding: 113 113 113
Width: 500
Flags: W
HStem: -200 21G<375 500> 50 125<250 375> 425 125<250 375>
VStem: 125 125<175 425> 250 250<50 175 425 550> 375 125<-200 50 175 425>
Back
Fore
250 550 m 1xf4
 500 550 l 1xf0
 500 425 l 1xf0
 500 300 l 1xf4
 500 175 l 1xf0
 500 50 l 1xf0
 500 -75 l 1
 500 -200 l 1
 375 -200 l 1
 375 -75 l 1
 375 50 l 1
 250 50 l 1
 250 175 l 5
 375 175 l 5
 375 300 l 5
 375 425 l 5
 250 425 l 5
 250 550 l 1xf4
125 425 m 1
 250 425 l 5
 250 175 l 5
 125 175 l 1
 125 300 l 1
 125 425 l 1
EndSplineSet
EndChar
StartChar: r
Encoding: 114 114 114
Width: 500
Flags: W
HStem: -75 21G<125 250> 425 125<250 500>
VStem: 125 125<-75 425>
Back
Fore
250 550 m 1
 500 550 l 1
 500 425 l 1
 375 425 l 1
 250 425 l 1
 250 550 l 1
125 425 m 1
 250 425 l 5
 250 550 l 1
 250 175 l 1
 250 50 l 1
 250 -75 l 1
 125 -75 l 1
 125 50 l 1
 125 175 l 1
 125 300 l 1
 125 425 l 1
EndSplineSet
EndChar
StartChar: s
Encoding: 115 115 115
Width: 500
Flags: W
HStem: -75 125<125 375> 175 125<250 375> 300 125<125 250> 425 125<250 375>
VStem: 125 125<300 424> 250 126<175 300> 375 125<50 175>
Back
Fore
250 550 m 1xfa
 500 550 l 1
 500 425 l 1
 375 425 l 1
 125 425 l 1
 250 424 l 1
 250 550 l 1xfa
125 425 m 1
 250 424 l 1
 250 300 l 1
 125 300 l 1
 125 425 l 1
250 300 m 1
 376 300 l 1xf8
 375 175 l 1
 250 175 l 1
 250 300 l 1
375 175 m 1xfa
 500 176 l 1
 500 50 l 1xfa
 376 50 l 1xf8
 375 175 l 1xfa
125 50 m 1
 500 50 l 1xfa
 376 50 l 5xf8
 375 -75 l 1
 250 -75 l 1
 125 -75 l 1
 125 50 l 1
EndSplineSet
EndChar
StartChar: t
Encoding: 116 116 116
Width: 500
Flags: W
HStem: -75 21G<250 375> 300 125<125 250 375 500> 656 20G<-2125 375>
VStem: 250 125<-75 300 425 675>
Back
Fore
250 675 m 1
 375 676 l 5
 375 425 l 1
 500 425 l 1
 500 300 l 1
 375 300 l 1
 375 175 l 1
 375 50 l 1
 375 -75 l 1
 250 -75 l 1
 250 50 l 1
 250 175 l 1
 250 300 l 1
 125 300 l 1
 125 425 l 1
 250 425 l 1
 250 550 l 1
 250 675 l 1
EndSplineSet
EndChar
StartChar: u
Encoding: 117 117 117
Width: 500
Flags: W
HStem: -75 125<250 375> 530 20G<125 250 375 500>
VStem: 125 125<50 550> 375 125<50 550>
Back
Fore
125 550 m 1
 250 550 l 5
 250 300 l 1
 250 175 l 1
 250 50 l 1
 375 50 l 1
 375 175 l 1
 375 300 l 1
 375 425 l 1
 375 550 l 1
 500 550 l 1
 500 425 l 1
 500 300 l 1
 500 175 l 1
 500 50 l 1
 500 -75 l 1
 375 -75 l 1
 250 -75 l 1
 125 -75 l 1
 125 50 l 1
 125 175 l 1
 125 300 l 1
 125 425 l 1
 125 550 l 1
EndSplineSet
EndChar
StartChar: v
Encoding: 118 118 118
Width: 500
Flags: W
HStem: -75 125<250 375> 530 20G<125 250 375 500>
VStem: 125 125<50 550> 250 125<-75 50> 375 125<50 550>
CounterMasks: 1 00
Back
Fore
125 550 m 1
 250 550 l 5
 250 300 l 1
 250 175 l 1
 250 50 l 1
 375 50 l 1
 375 175 l 1
 375 300 l 1
 375 425 l 1
 375 550 l 1
 500 550 l 1
 500 425 l 1
 500 300 l 1
 500 175 l 1
 500 50 l 1
 375 50 l 1
 375 -75 l 1
 250 -75 l 1
 250 50 l 1
 125 50 l 1
 125 175 l 1
 125 300 l 1
 125 425 l 1
 125 550 l 1
EndSplineSet
EndChar
StartChar: w
Encoding: 119 119 119
Width: 500
Flags: W
HStem: -75 21G<125 250 375 500> 50 125<250 375> 530 20G<125 250 375 500>
VStem: 125 125<-75 50 175 550> 375 125<-75 50 175 550>
Back
Fore
125 550 m 1
 250 550 l 5
 250 300 l 1
 250 175 l 1
 375 175 l 1
 375 300 l 1
 375 425 l 1
 375 550 l 1
 500 550 l 1
 500 425 l 1
 500 300 l 1
 500 175 l 1
 500 50 l 1
 500 -75 l 1
 375 -75 l 1
 375 50 l 1
 250 50 l 1
 250 -75 l 1
 125 -75 l 1
 125 50 l 1
 125 175 l 1
 125 300 l 1
 125 425 l 1
 125 550 l 1
EndSplineSet
EndChar
StartChar: x
Encoding: 120 120 120
Width: 500
Flags: W
HStem: -75 250<125 250 375 500> 175 125<250 375> 300 250<125 250 375 500>
VStem: 125 125<-75 175 300 550> 250 125<175 300> 375 125<-75 175 300 550>
CounterMasks: 1 00
Back
Fore
125 550 m 1
 250 550 l 5
 250 300 l 1
 375 300 l 1
 375 425 l 1
 375 550 l 1
 500 550 l 1
 500 425 l 1
 500 300 l 1
 375 300 l 1
 375 175 l 1
 500 175 l 1
 500 50 l 1
 500 -75 l 1
 375 -75 l 1
 375 50 l 1
 375 175 l 1
 250 175 l 1
 250 50 l 1
 250 -75 l 1
 125 -75 l 1
 125 50 l 1
 125 175 l 1
 250 175 l 1
 250 300 l 1
 125 300 l 1
 125 425 l 1
 125 550 l 1
EndSplineSet
EndChar
StartChar: y
Encoding: 121 121 121
Width: 500
Flags: W
HStem: -200 125<125 375> 50 125<250 375> 530 20G<125 250 375 500>
VStem: 125 125<175 550> 375 125<-75 50 175 550>
Back
Fore
125 550 m 1
 250 550 l 5
 250 300 l 1
 250 175 l 1
 375 175 l 1
 375 300 l 1
 375 425 l 1
 375 550 l 1
 500 550 l 1
 500 425 l 1
 500 300 l 1
 500 175 l 1
 500 50 l 1
 500 -75 l 1
 375 -75 l 1
 375 -200 l 1
 250 -200 l 1
 125 -200 l 1
 125 -75 l 1
 250 -75 l 1
 375 -75 l 1
 375 50 l 1
 250 50 l 1
 250 175 l 1
 125 175 l 1
 125 300 l 1
 125 425 l 1
 125 550 l 1
EndSplineSet
EndChar
StartChar: z
Encoding: 122 122 122
Width: 500
Flags: W
HStem: -75 125<250 500> 175 125<250 375> 425 125<125 375>
VStem: 125 125<50 175> 250 125<175 300> 375 125<300 425>
CounterMasks: 1 00
Back
Fore
125 550 m 1
 375 550 l 1
 500 550 l 1
 500 425 l 1
 500 300 l 1
 375 300 l 1
 375 175 l 1
 250 175 l 1
 250 50 l 1
 375 50 l 1
 500 50 l 1
 500 -75 l 1
 375 -75 l 1
 250 -75 l 1
 125 -75 l 1
 125 50 l 1
 125 175 l 1
 250 175 l 1
 250 300 l 1
 375 300 l 1
 375 425 l 1
 250 425 l 1
 125 425 l 1
 125 550 l 1
EndSplineSet
EndChar
StartChar: braceleft
Encoding: 123 123 123
Width: 500
Flags: W
HStem: -75 125<375 500> 300 125<125 250> 675 125<375 500>
VStem: 125 125<300 425> 250 125<50 300 425 675> 375 125<-75 50 675 800>
CounterMasks: 1 00
Back
Fore
375 800 m 1
 500 800 l 5
 500 675 l 1
 375 675 l 1
 375 800 l 1
250 675 m 1
 375 675 l 1
 375 425 l 1
 250 425 l 1
 250 550 l 1
 250 675 l 1
125 425 m 1
 250 425 l 1
 250 300 l 1
 125 300 l 1
 125 425 l 1
250 300 m 1
 375 300 l 1
 375 50 l 1
 250 50 l 1
 250 175 l 1
 250 300 l 1
375 50 m 1
 500 50 l 1
 500 -75 l 1
 375 -75 l 1
 375 50 l 1
EndSplineSet
EndChar
StartChar: bar
Encoding: 124 124 124
Width: 500
Flags: W
HStem: -75 21G<250 375>
VStem: 250 125<-75 300 425 800>
Back
Fore
250 300 m 1
 375 300 l 1
 375 50 l 1
 375 -75 l 1
 250 -75 l 1
 250 50 l 1
 250 175 l 1
 250 300 l 1
250 800 m 1
 375 800 l 5
 375 550 l 1
 375 425 l 1
 250 425 l 1
 250 550 l 1
 250 675 l 1
 250 800 l 1
EndSplineSet
EndChar
StartChar: braceright
Encoding: 125 125 125
Width: 500
Flags: W
HStem: -75 125<125 250> 300 125<375 500> 675 125<125 250>
VStem: 125 125<-75 50 675 800> 250 125<50 300 425 675> 375 125<300 425>
CounterMasks: 1 00
Back
Fore
125 800 m 1
 250 800 l 5
 250 675 l 1
 375 675 l 1
 375 550 l 1
 375 425 l 1
 500 425 l 1
 500 300 l 1
 375 300 l 1
 375 175 l 1
 375 50 l 1
 250 50 l 1
 250 -75 l 1
 125 -75 l 1
 125 50 l 1
 250 50 l 1
 250 175 l 1
 250 300 l 1
 375 300 l 1
 375 425 l 1
 250 425 l 1
 250 550 l 1
 250 675 l 1
 125 675 l 1
 125 800 l 1
EndSplineSet
EndChar
StartChar: asciitilde
Encoding: 126 126 126
Width: 500
Flags: W
HStem: 300 125<375 500> 425 125<125 250>
Back
Fore
125 550 m 1
 375 550 l 1
 375 425 l 1
 500 425 l 1
 500 300 l 1
 375 300 l 1
 250 300 l 1
 250 425 l 1
 125 425 l 1
 125 550 l 1
EndSplineSet
EndChar
StartChar: exclamdown
Encoding: 161 161 161
Width: 500
Flags: W
HStem: -75 21G<250 375> 550 125<250 375>
VStem: 250 125<-75 424 550 675>
Back
Fore
250 425 m 1
 375 424 l 1
 375 175 l 1
 375 50 l 1
 375 -75 l 1
 250 -75 l 1
 250 50 l 1
 250 175 l 1
 250 300 l 1
 250 425 l 1
250 675 m 1
 376 676 l 5
 375 550 l 1
 250 550 l 1
 250 675 l 1
EndSplineSet
EndChar
StartChar: cent
Encoding: 162 162 162
Width: 500
Flags: W
HStem: -200 21G<250 375> -75 125<375 500> 425 125<375 500>
VStem: 125 125<50 425> 250 125<-200 -75 550 675> 250 250<-75 50 425 550>
Back
Fore
125 425 m 1xf0
 250 425 l 1
 250 300 l 1
 250 175 l 1
 250 50 l 1
 125 50 l 1
 125 175 l 1
 125 300 l 1
 125 425 l 1xf0
250 50 m 1
 500 50 l 1xf0
 500 -75 l 1xf0
 375 -75 l 1xf0
 375 -200 l 1xf0
 250 -200 l 1
 250 -75 l 1
 250 50 l 1
250 675 m 1
 375 675 l 5xf0
 375 550 l 1xf0
 500 550 l 1xf0
 500 425 l 1xf0
 375 425 l 1xf0
 250 425 l 1
 250 550 l 1
 250 675 l 1
EndSplineSet
EndChar
StartChar: sterling
Encoding: 163 163 163
Width: 500
Flags: W
HStem: -75 125<0 125 250 375> 50 125<375 500> 175 125<0 125> 300 125<250 375> 550 125<250 500>
VStem: 125 125<50 175 425 550> 375 125<50 175>
Back
Fore
375 175 m 1
 500 176 l 1
 500 50 l 1
 375 50 l 1
 375 175 l 1
250 675 m 1
 500 675 l 1
 500 550 l 1
 375 550 l 1
 250 550 l 1
 250 675 l 1
125 550 m 1
 250 550 l 5
 250 425 l 1
 375 425 l 1
 375 300 l 1
 250 300 l 1
 250 175 l 1
 250 50 l 1
 375 50 l 1
 375 -75 l 1
 250 -75 l 1
 125 -75 l 1
 0 -75 l 1
 0 50 l 1
 125 50 l 1
 125 175 l 1
 0 175 l 1
 0 300 l 1
 125 300 l 1
 125 425 l 1
 125 550 l 1
EndSplineSet
EndChar
StartChar: currency
Encoding: 164 164 164
Width: 500
Flags: W
HStem: 175 123<250 376> 426 124<250 376>
VStem: 125 125<298 426> 376 124<298 426>
Back
Fore
250 426 m 1
 250 298 l 1
 376 298 l 1
 376 426 l 5
 250 426 l 1
125 550 m 1
 375 550 l 1
 500 550 l 1
 500 425 l 1
 500 300 l 1
 500 175 l 1
 375 175 l 1
 250 175 l 1
 125 175 l 1
 125 300 l 1
 125 425 l 1
 125 550 l 1
EndSplineSet
EndChar
StartChar: yen
Encoding: 165 165 165
Width: 500
Flags: W
HStem: -75 21G<250 375> 50 125<125 250 375 500> 300 125<125 250 375 500> 550 125<125 250 375 500>
VStem: 125 125<550 675> 250 125<-75 50 175 300 425 550> 375 125<550 675>
CounterMasks: 1 00
Back
Fore
125 675 m 1
 250 676 l 5
 250 550 l 1
 375 550 l 1
 375 675 l 1
 500 675 l 1
 500 550 l 1
 375 550 l 1
 375 425 l 1
 500 425 l 1
 500 300 l 1
 375 300 l 1
 375 175 l 1
 500 175 l 1
 500 50 l 1
 375 50 l 1
 375 -75 l 1
 250 -75 l 1
 250 50 l 1
 125 50 l 1
 125 175 l 1
 250 175 l 1
 250 300 l 1
 125 300 l 1
 125 425 l 1
 250 425 l 1
 250 550 l 1
 125 550 l 1
 125 675 l 1
EndSplineSet
EndChar
StartChar: brokenbar
Encoding: 166 166 166
Width: 500
Flags: W
HStem: -75 21G<250 375>
VStem: 250 125<-75 300 425 800>
Back
Fore
250 300 m 1
 375 300 l 1
 375 175 l 1
 375 50 l 1
 375 -75 l 1
 250 -75 l 1
 250 50 l 1
 250 175 l 1
 250 300 l 1
250 800 m 1
 375 800 l 5
 375 675 l 1
 375 550 l 1
 375 425 l 1
 250 425 l 1
 250 550 l 1
 250 675 l 1
 250 800 l 1
EndSplineSet
EndChar
StartChar: section
Encoding: 167 167 167
Width: 500
Flags: W
HStem: -75 125<125 375> 50 125<375 500> 175 125<250 375> 300 125<125 250 375 500> 425 125<250 375> 550 125<125 250> 675 125<250 500>
VStem: 125 125<300 425 550 675> 250 125<175 300 425 550> 375 125<50 175 300 425>
CounterMasks: 1 00
Back
Fore
250 800 m 1
 500 800 l 1
 500 675 l 1
 375 675 l 1
 250 675 l 1
 250 800 l 1
125 675 m 1
 250 675 l 1
 250 550 l 1
 125 550 l 1
 125 675 l 1
250 550 m 1
 375 550 l 5
 375 425 l 1
 250 425 l 1
 250 550 l 1
125 425 m 1
 250 425 l 1
 250 300 l 1
 125 300 l 1
 125 425 l 1
375 425 m 1
 500 425 l 1
 500 300 l 1
 375 300 l 1
 375 425 l 1
250 300 m 1
 375 300 l 1
 375 175 l 1
 250 175 l 1
 250 300 l 1
375 175 m 1
 500 175 l 1
 500 50 l 1
 375 50 l 1
 375 175 l 1
125 50 m 1
 375 50 l 1
 375 -75 l 1
 250 -75 l 1
 125 -75 l 1
 125 50 l 1
EndSplineSet
EndChar
StartChar: dieresis
Encoding: 168 168 168
Width: 500
Flags: W
HStem: 675 125<125 249 375 500>
VStem: 125 124<675 800> 375 125<675 800>
Back
Fore
375 800 m 1
 500 801 l 5
 500 675 l 1
 375 675 l 1
 375 800 l 1
125 800 m 1
 249 801 l 1
 250 675 l 1
 125 675 l 1
 125 800 l 1
EndSplineSet
EndChar
StartChar: copyright
Encoding: 169 169 169
Width: 500
Flags: W
HStem: -75 125<125 375> 175 125<250 375> 300 125<125 250> 425 125<250 375> 675 125<125 375>
VStem: 0 125<50 300 425 675> 125 250<-75 50 675 800> 250 250<175 300 425 550> 375 125<50 175 300 425 550 675>
Back
Fore
125 800 m 1xfd
 375 800 l 1xfc
 375 675 l 1xfc
 250 675 l 1
 125 675 l 1
 125 800 l 1xfd
0 675 m 1
 125 675 l 1
 125 425 l 1
 250 425 l 1
 250 300 l 1xfd
 125 300 l 1
 125 175 l 1
 125 50 l 1
 0 50 l 1
 0 175 l 1
 0 300 l 1
 0 425 l 1
 0 550 l 1
 0 675 l 1
375 675 m 1xfc
 500 675 l 5xfc80
 500 425 l 1
 500 300 l 1
 500 175 l 1xfd
 500 50 l 1xfc80
 375 50 l 1xfc
 375 175 l 1xfc80
 250 175 l 1
 250 300 l 1xfd
 375 300 l 1
 375 425 l 1xfc80
 250 425 l 1
 250 550 l 1xfd
 375 550 l 1xfc80
 375 675 l 1xfc
125 50 m 1
 375 50 l 1xfc
 375 -75 l 1xfc
 250 -75 l 1xfd
 125 -75 l 1
 125 50 l 1
EndSplineSet
EndChar
StartChar: ordfeminine
Encoding: 170 170 170
Width: 500
Flags: W
HStem: 175 125<125 500> 425 125<125 250> 675 125<125 250>
VStem: 125 125<425 550> 375 125<425 550>
CounterMasks: 1 00
Back
Fore
125 300 m 1
 375 300 l 1
 500 300 l 1
 500 175 l 1
 375 175 l 1
 250 175 l 1
 125 175 l 1
 125 300 l 1
125 800 m 1
 375 800 l 1
 375 675 l 1
 500 675 l 1
 500 550 l 1
 500 425 l 1
 375 425 l 1
 375 550 l 1
 250 550 l 1
 250 425 l 1
 125 425 l 1
 125 550 l 1
 250 550 l 1
 250 675 l 1
 125 675 l 1
 125 800 l 1
EndSplineSet
EndChar
StartChar: guillemotleft
Encoding: 171 171 171
Width: 500
Flags: W
HStem: 50 125<125 250 375 500> 175 125<0 125 250 375> 300 125<125 250 375 500>
VStem: 0 125<175 300> 125 125<50 175 300 424> 250 125<175 300> 375 125<50 175 300 424>
CounterMasks: 1 00
Back
Fore
125 425 m 1
 250 424 l 5
 250 300 l 1
 125 300 l 1
 125 425 l 1
375 425 m 1
 500 424 l 1
 500 300 l 1
 375 300 l 1
 375 425 l 1
0 300 m 1
 125 300 l 1
 125 175 l 1
 0 175 l 1
 0 300 l 1
250 300 m 1
 375 300 l 1
 375 175 l 1
 250 175 l 1
 250 300 l 1
125 175 m 1
 250 175 l 1
 250 50 l 1
 125 50 l 1
 125 175 l 1
375 175 m 1
 500 176 l 1
 500 50 l 1
 375 50 l 1
 375 175 l 1
EndSplineSet
EndChar
StartChar: logicalnot
Encoding: 172 172 172
Width: 500
Flags: W
HStem: 425 125<125 375>
VStem: 375 125<300 425>
Back
Fore
125 550 m 1
 375 550 l 1
 500 550 l 1
 500 425 l 1
 500 300 l 1
 375 300 l 1
 375 425 l 1
 250 425 l 1
 125 425 l 1
 125 550 l 1
EndSplineSet
EndChar
StartChar: uni00AD
Encoding: 173 173 173
Width: 500
Flags: W
HStem: 300 125<125 500>
Back
Fore
125 425 m 1
 375 425 l 1
 500 425 l 1
 500 300 l 1
 375 300 l 1
 250 300 l 1
 125 300 l 1
 125 425 l 1
EndSplineSet
EndChar
StartChar: registered
Encoding: 174 174 174
Width: 500
Flags: W
HStem: -75 125<125 375> 425 125<250 375> 675 125<125 375>
VStem: 0 250<175 425> 0 125<50 175 425 550> 125 250<-75 50 675 800> 375 125<50 425>
Back
Fore
125 800 m 1xe6
 375 800 l 1
 375 675 l 1xe6
 250 675 l 1xf2
 125 675 l 1
 125 800 l 1xe6
0 675 m 1xea
 125 550 l 1
 125 425 l 1xea
 250 425 l 1
 250 300 l 1
 250 175 l 1xf2
 125 175 l 1
 125 50 l 1
 0 50 l 1xea
 0 175 l 1
 0 300 l 1
 0 425 l 1xf2
 0 550 l 1
 0 675 l 1xea
375 675 m 1xe6
 500 550 l 1
 500 425 l 1
 500 300 l 1
 500 175 l 1
 500 50 l 1
 375 50 l 1xe6
 375 175 l 1
 375 300 l 1
 375 425 l 1
 250 425 l 1
 250 550 l 1xf2
 375 550 l 1
 375 675 l 1xe6
125 50 m 1xea
 375 50 l 1
 375 -75 l 1xee
 250 -75 l 1xf2
 125 -75 l 1xe6
 125 50 l 1xea
EndSplineSet
EndChar
StartChar: macron
Encoding: 175 175 175
Width: 500
Flags: W
HStem: 675 125<125 500>
Back
Fore
125 800 m 1
 375 800 l 1
 500 800 l 1
 500 675 l 1
 375 675 l 1
 250 675 l 1
 125 675 l 1
 125 800 l 1
EndSplineSet
EndChar
StartChar: degree
Encoding: 176 176 176
Width: 500
Flags: W
HStem: 425 125<250 375> 550 125<125 250 375 500> 675 125<250 375>
VStem: 125 125<550 675> 250 125<425 550 675 800> 375 125<550 675>
CounterMasks: 1 00
Back
Fore
250 800 m 1
 375 801 l 5
 375 675 l 1
 250 675 l 1
 250 800 l 1
125 675 m 1
 250 675 l 1
 250 550 l 1
 125 550 l 1
 125 675 l 1
375 675 m 1
 500 675 l 1
 500 550 l 1
 375 550 l 1
 375 675 l 1
250 550 m 1
 375 550 l 1
 375 425 l 1
 250 425 l 1
 250 550 l 1
EndSplineSet
EndChar
StartChar: plusminus
Encoding: 177 177 177
Width: 500
Flags: W
HStem: 50 125<125 500> 425 125<125 250 375 500> 655 20G<250 375>
VStem: 250 125<300 425 550 675>
Back
Fore
125 175 m 1
 375 175 l 1
 500 175 l 1
 500 50 l 1
 375 50 l 1
 250 50 l 1
 125 50 l 1
 125 175 l 1
250 675 m 1
 375 675 l 5
 375 550 l 1
 500 550 l 1
 500 425 l 1
 375 425 l 1
 375 300 l 1
 250 300 l 1
 250 425 l 1
 125 425 l 1
 125 550 l 1
 250 550 l 1
 250 675 l 1
EndSplineSet
EndChar
StartChar: uni00B2
Encoding: 178 178 178
Width: 500
Flags: W
HStem: 175 125<125 250 375 500> 425 125<375 500> 550 125<125 375>
VStem: 250 125<300 425> 375 125<425 550>
Back
Fore
125 675 m 1
 375 675 l 1
 375 550 l 1
 500 550 l 1
 500 425 l 1
 375 425 l 1
 375 300 l 1
 500 300 l 1
 500 175 l 1
 375 175 l 1
 250 175 l 1
 125 175 l 1
 125 300 l 1
 250 300 l 1
 250 425 l 1
 375 425 l 1
 375 550 l 1
 250 550 l 1
 125 550 l 1
 125 675 l 1
EndSplineSet
EndChar
StartChar: uni00B3
Encoding: 179 179 179
Width: 500
Flags: W
HStem: 175 125<125 375> 550 125<125 250>
VStem: 375 125<300 425>
Back
Fore
125 675 m 1
 375 675 l 1
 500 675 l 1
 500 550 l 1
 500 425 l 1
 500 300 l 1
 375 300 l 1
 375 175 l 1
 250 175 l 1
 125 175 l 1
 125 300 l 1
 250 300 l 1
 375 300 l 1
 375 425 l 1
 250 425 l 1
 250 550 l 1
 125 550 l 1
 125 675 l 1
EndSplineSet
EndChar
StartChar: acute
Encoding: 180 180 180
Width: 500
Flags: W
HStem: 425 125<125 250> 550 125<250 375>
VStem: 125 125<425 550> 250 125<550 675>
Back
Fore
250 675 m 1
 375 675 l 5
 375 550 l 1
 250 550 l 1
 250 675 l 1
125 550 m 1
 250 550 l 1
 250 425 l 1
 125 425 l 1
 125 550 l 1
EndSplineSet
EndChar
StartChar: uni00B5
Encoding: 181 181 181
Width: 500
Flags: W
HStem: -75 21G<125 250> 50 125<250 375 500 625> 530 20G<125 250 375 500>
VStem: 125 125<-75 50 175 550> 375 125<175 550> 500 125<50 175>
Back
Fore
125 550 m 1
 250 550 l 5
 250 300 l 1
 250 175 l 1
 375 175 l 1
 375 300 l 1
 375 425 l 1
 375 550 l 1
 500 550 l 1
 500 425 l 1
 500 300 l 1
 500 175 l 1
 625 175 l 1
 625 50 l 1
 500 50 l 1
 500 175 l 1
 375 175 l 1
 375 50 l 1
 250 50 l 1
 250 -75 l 1
 125 -75 l 1
 125 50 l 1
 125 175 l 1
 125 300 l 1
 125 425 l 1
 125 550 l 1
EndSplineSet
EndChar
StartChar: paragraph
Encoding: 182 182 182
Width: 500
Flags: W
HStem: -75 125<0 125 375 500> 550 125<125 250 375 500>
VStem: 0 125<300 550> 125 250<50 300> 250 125<300 550>
Back
Fore
125 675 m 1xe8
 375 675 l 1
 500 675 l 1
 500 550 l 1
 375 550 l 1
 375 425 l 1xe8
 375 300 l 1xe0
 375 175 l 1xe0
 375 50 l 1xe0
 500 50 l 1
 500 -75 l 1
 375 -75 l 1
 250 -75 l 1
 125 -75 l 1
 0 -75 l 1
 0 50 l 1
 125 50 l 1
 125 175 l 1
 125 300 l 1
 250 300 l 1
 250 425 l 1
 250 550 l 1
 125 550 l 1
 125 675 l 1xe8
0 550 m 1
 125 550 l 5
 125 300 l 1
 0 300 l 1
 0 425 l 1
 0 550 l 1
EndSplineSet
EndChar
StartChar: periodcentered
Encoding: 183 183 183
Width: 500
Flags: W
HStem: 175 125<250 375>
VStem: 250 125<175 300>
Back
Fore
250 300 m 1
 375 300 l 5
 375 175 l 1
 250 175 l 1
 250 300 l 1
EndSplineSet
EndChar
StartChar: cedilla
Encoding: 184 184 184
Width: 500
Flags: W
HStem: -200 21G<250 375>
VStem: 250 125<-200 49.5>
Back
Fore
250 50 m 1
 375 49.5 l 5
 375 -200 l 1
 250 -200 l 1
 250 -75 l 1
 250 50 l 1
EndSplineSet
EndChar
StartChar: uni00B9
Encoding: 185 185 185
Width: 500
Flags: W
HStem: 175 125<125 250 375 500> 425 125<125 250> 655 20G<250 375>
VStem: 250 125<300 425 550 675>
Back
Fore
250 675 m 1
 375 675 l 5
 375 425 l 1
 375 300 l 1
 500 300 l 1
 500 175 l 1
 375 175 l 1
 250 175 l 1
 125 175 l 1
 125 300 l 1
 250 300 l 1
 250 425 l 1
 125 425 l 1
 125 550 l 1
 250 550 l 1
 250 675 l 1
EndSplineSet
EndChar
StartChar: ordmasculine
Encoding: 186 186 186
Width: 1000
Flags: W
HStem: 175 125<125 500> 425 125<250 375> 550 125<125 250 375 500> 675 125<250 375>
VStem: 125 125<550 675> 250 125<425 550 675 800> 375 126<550 675>
Back
Fore
250 800 m 1
 375 801 l 5
 375 675 l 1
 250 675 l 1
 250 800 l 1
125 675 m 1
 250 675 l 1
 250 550 l 1
 125 550 l 1
 125 675 l 1
375 675 m 1
 501 675 l 1
 500 550 l 1
 375 550 l 1
 375 675 l 1
250 550 m 1
 375 550 l 1
 375 425 l 1
 250 425 l 1
 250 550 l 1
125 300 m 1
 375 300 l 1
 500 300 l 1
 500 175 l 1
 375 175 l 1
 250 175 l 1
 125 175 l 1
 125 300 l 1
EndSplineSet
EndChar
StartChar: guillemotright
Encoding: 187 187 187
Width: 500
Flags: W
HStem: 50 125<0 125> 175 125<125 250 375 500> 300 125<0 124>
VStem: 0 124<50 175 300 424> 250 125<50 175 300 425>
CounterMasks: 1 00
Back
Fore
0 425 m 1
 124 424 l 5
 125 300 l 1
 250 300 l 1
 250 425 l 1
 375 425 l 1
 375 300 l 1
 500 300 l 1
 500 175 l 1
 375 175 l 1
 375 50 l 1
 250 50 l 1
 250 175 l 1
 125 175 l 1
 125 50 l 1
 0 50 l 1
 0 175 l 1
 125 175 l 1
 125 300 l 1
 0 300 l 1
 0 425 l 1
EndSplineSet
EndChar
StartChar: onequarter
Encoding: 188 188 188
Width: 500
Flags: W
HStem: 175 125<250 375> 300 125<125 250> 425 125<250 375> 550 125<375 500>
VStem: 125 124<300 425 550 800> 250 125<426 550> 375 125<50 175 300 425 550 675>
Back
Fore
125 800 m 1
 249 801 l 1
 250 550 l 1
 375 550 l 1
 375 675 l 1
 500 675 l 1
 500 550 l 1
 375 550 l 1
 375 426 l 1
 250 425 l 5
 250 300 l 1
 375 300 l 1
 375 426 l 1
 500 425 l 1
 500 300 l 1
 500 175 l 1
 500 50 l 1
 375 50 l 1
 375 175 l 1
 250 175 l 1
 250 300 l 1
 125 300 l 1
 125 425 l 1
 250 425 l 1
 250 550 l 1
 125 550 l 1
 125 675 l 1
 125 800 l 1
EndSplineSet
EndChar
StartChar: onehalf
Encoding: 189 189 189
Width: 500
Flags: W
HStem: 300 125<125 250> 550 125<375 500>
VStem: 125 124<550 800> 250 250<50 300> 250 125<425 550> 375 125<550 675>
Back
Fore
125 800 m 1xe8
 249 801 l 5
 250 550 l 1
 375 550 l 1
 375 675 l 1
 500 675 l 1
 500 550 l 1
 375 550 l 1
 375 425 l 1
 500 425 l 1xec
 500 300 l 1
 500 175 l 1
 500 50 l 1xf0
 375 50 l 1xe4
 250 50 l 1
 250 175 l 1
 250 300 l 1xf0
 125 300 l 1
 125 425 l 1
 250 425 l 1
 250 550 l 1
 125 550 l 1
 125 675 l 1
 125 800 l 1xe8
EndSplineSet
EndChar
StartChar: threequarters
Encoding: 190 190 190
Width: 500
Flags: W
HStem: 175 125<250 375> 550 125<375 500>
VStem: 125 124<300 426> 125 250<426 550 675 800> 375 125<50 175 300 425>
Back
Fore
125 800 m 1xd8
 375 800 l 1
 375 675 l 1
 500 675 l 1
 500 550 l 1
 375 550 l 1xd8
 375 425 l 1
 500 425 l 1
 500 300 l 1
 500 175 l 1
 500 50 l 1
 375 50 l 1
 375 175 l 1
 250 175 l 1
 249 300 l 1
 375 300 l 1
 375 425 l 1
 249 426 l 1
 249 300 l 1
 125 300 l 1
 125 425 l 1xe8
 125 550 l 1
 125 675 l 1
 125 800 l 1xd8
EndSplineSet
EndChar
StartChar: questiondown
Encoding: 191 191 191
Width: 500
Flags: W
HStem: -75 125<250 375> 50 125<375 500> 300 125<250 375> 550 125<250 375>
VStem: 125 125<50 300> 250 126<-75 50 300 424 550 675> 375 125<50 175>
Back
Fore
250 675 m 1xfa
 376 676 l 1xf8
 375 550 l 1
 250 550 l 1
 250 675 l 1xfa
250 425 m 1
 376 424 l 1xf8
 375 300 l 1xfa
 250 300 l 1
 250 425 l 1
125 300 m 1
 250 300 l 1
 250 175 l 1
 250 50 l 1
 125 50 l 1
 125 175 l 1
 125 300 l 1
375 175 m 1xfa
 500 176 l 5
 500 50 l 1
 375 50 l 1
 375 175 l 1xfa
250 50 m 1
 375 50 l 1
 375 -75 l 1
 250 -75 l 1
 250 50 l 1
EndSplineSet
EndChar
StartChar: Agrave
Encoding: 192 192 192
Width: 1000
Flags: W
HStem: -75 21G<125 250 375 500> 175 125<250 375> 550 125<250 375> 675 125<125 250>
VStem: 125 125<-75 175 300 550 675 800> 250 125<550 675> 375 125<-75 175 300 550>
CounterMasks: 1 00
Back
Fore
125 800 m 1
 250 800 l 1
 250 675 l 1
 375 675 l 1
 375 550 l 1
 500 550 l 1
 500 425 l 1
 500 300 l 1
 500 175 l 1
 500 50 l 1
 500 -75 l 1
 375 -75 l 1
 375 50 l 1
 375 175 l 1
 250 175 l 1
 250 50 l 1
 250 -75 l 1
 125 -75 l 1
 125 50 l 1
 125 175 l 1
 125 300 l 1
 125 425 l 1
 125 550 l 1
 250 550 l 1
 250 300 l 5
 375 300 l 1
 375 550 l 1
 250 550 l 1
 250 675 l 1
 125 675 l 1
 125 800 l 1
EndSplineSet
EndChar
StartChar: Aacute
Encoding: 193 193 193
Width: 1000
Flags: W
HStem: -75 21G<125 250 375 500> 175 125<250 375> 550 125<250 375> 675 125<375 500>
VStem: 125 125<-75 175 300 550> 250 125<550 675> 375 125<-75 175 300 550 675 800>
CounterMasks: 1 00
Back
Fore
375 800 m 1
 500 800 l 5
 500 675 l 1
 375 675 l 1
 375 800 l 1
250 675 m 1
 375 675 l 1
 375 550 l 1
 250 550 l 1
 250 675 l 1
125 550 m 1
 250 550 l 1
 250 300 l 1
 375 300 l 1
 375 425 l 1
 375 550 l 1
 500 550 l 1
 500 425 l 1
 500 300 l 1
 500 175 l 1
 500 50 l 1
 500 -75 l 1
 375 -75 l 1
 375 50 l 1
 375 175 l 1
 250 175 l 1
 250 50 l 1
 250 -75 l 1
 125 -75 l 1
 125 50 l 1
 125 175 l 1
 125 300 l 1
 125 425 l 1
 125 550 l 1
EndSplineSet
EndChar
StartChar: Acircumflex
Encoding: 194 194 194
Width: 500
Flags: W
HStem: -75 21G<125 250 375 500> 175 125<250 375> 425 125<250 375> 550 125<125 250 375 500> 675 125<250 375>
VStem: 125 125<-75 175 300 425 550 675> 250 125<425 550 675 800> 375 125<-75 175 300 425 550 675>
CounterMasks: 1 00
Back
Fore
250 800 m 1
 375 800 l 1
 375 675 l 1
 250 675 l 1
 250 800 l 1
125 675 m 1
 250 675 l 1
 250 550 l 1
 125 550 l 1
 125 675 l 1
375 675 m 1
 500 675 l 5
 500 550 l 1
 375 550 l 1
 375 675 l 1
250 550 m 1
 375 550 l 1
 375 425 l 1
 250 425 l 1
 250 550 l 1
125 425 m 1
 250 425 l 1
 250 300 l 1
 375 300 l 1
 375 425 l 1
 500 425 l 1
 500 300 l 1
 500 175 l 1
 500 50 l 1
 500 -75 l 1
 375 -75 l 1
 375 50 l 1
 375 175 l 1
 250 175 l 1
 250 50 l 1
 250 -75 l 1
 125 -75 l 1
 125 50 l 1
 125 175 l 1
 125 300 l 1
 125 425 l 1
EndSplineSet
EndChar
StartChar: Atilde
Encoding: 195 195 195
Width: 500
Flags: W
HStem: -75 21G<125 250 375 500> 175 127.5<250 375> 530 20G<375 500> 675 125<375 500>
VStem: 125 122.5<-75 175 302.5 550> 375 125<-75 175 302.5 550>
Back
Fore
250 800 m 1
 500 800 l 1
 500 675 l 1
 375 675 l 1
 375 550 l 1
 247.5 550 l 1
 247.5 302.5 l 1
 375 302.5 l 1
 375 550 l 1
 500 550 l 1
 500 425 l 1
 500 300 l 1
 500 175 l 1
 500 50 l 1
 500 -75 l 1
 375 -75 l 1
 375 50 l 1
 375 175 l 1
 250 175 l 1
 250 50 l 1
 250 -75 l 1
 125 -75 l 1
 125 50 l 1
 125 175 l 1
 125 300 l 1
 125 425 l 1
 125 550 l 1
 125 675 l 1
 250 675 l 1
 250 800 l 1
EndSplineSet
EndChar
StartChar: Adieresis
Encoding: 196 196 196
Width: 1000
Flags: W
HStem: -75 21G<125 250 375 500> 175 125<250 375> 550 125<250 375> 675 125<125 250 375 500>
VStem: 125 125<-75 175 300 550 675 800> 250 125<550 675> 375 125<-75 175 300 550 675 800>
CounterMasks: 1 00
Back
Fore
125 800 m 1
 250 800 l 1
 250 675 l 1
 375 675 l 1
 375 800 l 1
 500 800 l 1
 500 675 l 1
 375 675 l 1
 375 550 l 1
 500 550 l 1
 500 425 l 1
 500 300 l 1
 500 175 l 1
 500 50 l 1
 500 -75 l 1
 375 -75 l 1
 375 50 l 1
 375 175 l 1
 250 175 l 1
 250 50 l 1
 250 -75 l 1
 125 -75 l 1
 125 50 l 1
 125 175 l 1
 125 300 l 1
 125 425 l 1
 125 550 l 1
 250 550 l 1
 250 300 l 1
 375 300 l 1
 375 550 l 1
 250 550 l 5
 250 675 l 1
 125 675 l 1
 125 800 l 1
EndSplineSet
EndChar
StartChar: Aring
Encoding: 197 197 197
Width: 1000
Flags: W
HStem: -75 21G<125 250 375 500> 175 125<250 375> 425 125<250 375> 550 125<125 250 375 500> 675 125<250 375>
VStem: 125 125<-75 175 300 425 550 675> 250 125<425 550 675 800> 375 125<-75 175 300 425 550 675>
CounterMasks: 1 00
Back
Fore
250 800 m 1
 375 800 l 1
 375 675 l 1
 250 675 l 1
 250 800 l 1
125 675 m 1
 250 675 l 1
 250 550 l 1
 125 550 l 1
 125 675 l 1
375 675 m 1
 500 675 l 5
 500 550 l 1
 375 550 l 1
 375 675 l 1
250 550 m 1
 375 550 l 1
 375 425 l 1
 250 425 l 1
 250 550 l 1
125 425 m 1
 250 425 l 1
 250 300 l 1
 375 300 l 1
 375 425 l 1
 500 425 l 1
 500 300 l 1
 500 175 l 1
 500 50 l 1
 500 -75 l 1
 375 -75 l 1
 375 50 l 1
 375 175 l 1
 250 175 l 1
 250 50 l 1
 250 -75 l 1
 125 -75 l 1
 125 50 l 1
 125 175 l 1
 125 300 l 1
 125 425 l 1
EndSplineSet
EndChar
StartChar: AE
Encoding: 198 198 198
Width: 500
Flags: W
HStem: -75 125<375 500> 175 125<125 250> 300 125<375 500> 550 125<125 250 375 500>
VStem: 0 125<-75 175 300 550> 250 250<-75 50 300 425> 250 125<50 175 425 550>
Back
Fore
125 675 m 1xfa
 375 675 l 1xfa
 500 675 l 1
 500 550 l 1xfc
 375 550 l 1
 375 425 l 1xfa
 500 425 l 1
 500 300 l 1xfc
 375 300 l 1
 375 175 l 1
 375 50 l 1xfa
 500 50 l 1
 500 -75 l 1xfc
 375 -75 l 1xfa
 250 -75 l 1
 250 50 l 1xfc
 250 175 l 1xfa
 125 175 l 1
 125 50 l 1
 125 -75 l 1
 0 -75 l 1
 0 50 l 1
 0 175 l 1
 0 300 l 1
 0 425 l 1
 0 550 l 1
 125 550 l 1
 125 425 l 1
 125 300 l 1
 250 300 l 1
 250 425 l 1xfc
 250 550 l 1
 125 550 l 1
 125 675 l 1xfa
EndSplineSet
EndChar
StartChar: Ccedilla
Encoding: 199 199 199
Width: 500
Flags: W
HStem: -200 21G<250 375> 425 125<375 500> 550 125<250 375>
VStem: 125 125<50 550> 250 125<-200 50 550 675> 375 125<50 300 425 550>
CounterMasks: 1 00
Back
Fore
250 675 m 1
 375 675 l 1
 375 550 l 1
 250 550 l 1
 250 675 l 1
125 550 m 1
 250 550 l 1
 250 300 l 1
 250 175 l 1
 250 50 l 1
 125 50 l 1
 125 175 l 1
 125 300 l 1
 125 425 l 1
 125 550 l 1
375 550 m 1
 500 550 l 5
 500 425 l 1
 375 425 l 1
 375 550 l 1
375 300 m 1
 500 300 l 1
 500 50 l 1
 375 50 l 1
 375 175 l 1
 375 300 l 1
250 50 m 1
 375 50 l 1
 375 -200 l 1
 250 -200 l 1
 250 -75 l 1
 250 50 l 1
EndSplineSet
EndChar
StartChar: Egrave
Encoding: 200 200 200
Width: 500
Flags: W
HStem: -75 125<250 500> 175 125<250 500> 425 125<375 500> 675 125<125 250>
VStem: 125 375<-75 50 175 300 425 550> 125 125<50 175 300 425 675 800> 250 125<550 675>
Back
Fore
125 800 m 1xf4
 250 800 l 5
 250 675 l 1
 375 675 l 1
 375 550 l 1xf6
 500 550 l 1
 500 425 l 1xf8
 375 425 l 1
 250 425 l 1
 250 300 l 1
 375 300 l 1xf6
 500 300 l 1
 500 175 l 1xf8
 375 175 l 1
 250 175 l 1
 250 50 l 1
 375 50 l 1xf6
 500 50 l 1
 500 -75 l 1xf8
 375 -75 l 1
 250 -75 l 1xf2
 125 -75 l 1
 125 50 l 1
 125 175 l 1
 125 300 l 1
 125 425 l 1
 125 550 l 1xf8
 250 550 l 1xf2
 250 675 l 1
 125 675 l 1
 125 800 l 1xf4
EndSplineSet
EndChar
StartChar: Eacute
Encoding: 201 201 201
Width: 500
Flags: W
HStem: -75 125<250 500> 175 125<250 500> 425 125<375 500> 675 125<375 500>
VStem: 125 125<50 175 300 425> 125 375<-75 50 175 300 425 550> 250 125<550 675> 375 125<675 800>
Back
Fore
375 800 m 1xf3
 500 800 l 5
 500 675 l 1
 375 675 l 1
 375 800 l 1xf3
250 675 m 1
 375 675 l 1
 375 550 l 1xf2
 500 550 l 1
 500 425 l 1xf4
 375 425 l 1
 250 425 l 1
 250 300 l 1
 375 300 l 1xf9
 500 300 l 1
 500 175 l 1xf4
 375 175 l 1
 250 175 l 1
 250 50 l 1
 375 50 l 1xf9
 500 50 l 1
 500 -75 l 1xf4
 375 -75 l 1xf1
 250 -75 l 1xf2
 125 -75 l 1xf4
 125 50 l 1
 125 175 l 1
 125 300 l 1
 125 425 l 1xf8
 125 550 l 1xf4
 250 550 l 1
 250 675 l 1
EndSplineSet
EndChar
StartChar: Ecircumflex
Encoding: 202 202 202
Width: 500
Flags: W
HStem: -75 125<250 500> 175 125<250 500> 425 125<250 375> 675 125<250 375>
VStem: 125 375<-75 50 175 300 425 550> 125 125<50 175 300 425 550 675> 250 125<675 800> 375 125<550 675>
Back
Fore
250 800 m 1xf6
 375 800 l 5
 375 675 l 1
 250 675 l 1
 250 800 l 1xf6
125 675 m 1
 250 675 l 1
 250 550 l 1xf4
 375 550 l 1
 375 675 l 1
 500 675 l 1xf3
 500 550 l 1
 500 425 l 1xf8
 375 425 l 1
 250 425 l 1
 250 300 l 1
 375 300 l 1xf5
 500 300 l 1
 500 175 l 1xf8
 375 175 l 1
 250 175 l 1
 250 50 l 1
 375 50 l 1xf5
 500 50 l 1
 500 -75 l 1xf8
 375 -75 l 1xf1
 250 -75 l 1xf2
 125 -75 l 1
 125 50 l 1
 125 175 l 1
 125 300 l 1
 125 425 l 1
 125 550 l 1xf8
 125 675 l 1
EndSplineSet
EndChar
StartChar: Edieresis
Encoding: 203 203 203
Width: 500
Flags: W
HStem: -75 125<250 500> 175 125<250 500> 425 125<250 500> 675 125<125 250 375 500>
VStem: 125 125<50 175 300 425 675 800> 125 375<-75 50 175 300 425 550> 375 125<675 800>
Back
Fore
375 800 m 1xf2
 500 800 l 5
 500 675 l 1
 375 675 l 1
 375 800 l 1xf2
125 550 m 1xf4
 375 550 l 1xf2
 500 550 l 1
 500 425 l 1xf4
 375 425 l 1
 250 425 l 1
 250 300 l 1
 375 300 l 1xfa
 500 300 l 1
 500 175 l 1xf4
 375 175 l 1
 250 175 l 1
 250 50 l 1
 375 50 l 1xfa
 500 50 l 1
 500 -75 l 1xf4
 375 -75 l 1
 250 -75 l 1xfa
 125 -75 l 1xf4
 125 50 l 1
 125 175 l 1
 125 300 l 1
 125 425 l 1xf8
 125 550 l 1xf4
125 800 m 1xf8
 250 800 l 1
 250 675 l 1
 125 675 l 1
 125 800 l 1xf8
EndSplineSet
EndChar
StartChar: Igrave
Encoding: 204 204 204
Width: 500
Flags: W
HStem: -75 125<125 250 375 500> 425 125<125 250 375 500> 675 125<125 250>
VStem: 125 125<675 800> 250 125<50 425 550 675>
Back
Fore
125 800 m 1
 250 800 l 5
 250 675 l 1
 375 675 l 1
 375 550 l 1
 500 550 l 1
 500 425 l 1
 375 425 l 1
 375 300 l 1
 375 175 l 1
 375 50 l 1
 500 50 l 1
 500 -75 l 1
 375 -75 l 1
 250 -75 l 1
 125 -75 l 1
 125 50 l 1
 250 50 l 1
 250 175 l 1
 250 300 l 1
 250 425 l 1
 125 425 l 1
 125 550 l 1
 250 550 l 1
 250 675 l 1
 125 675 l 1
 125 800 l 1
EndSplineSet
EndChar
StartChar: Iacute
Encoding: 205 205 205
Width: 500
Flags: W
HStem: -75 125<125 250 375 500> 425 125<125 250 375 500> 675 125<375 500>
VStem: 250 125<50 425 550 675> 375 125<675 800>
Back
Fore
375 800 m 1
 500 800 l 5
 500 675 l 1
 375 675 l 1
 375 800 l 1
250 675 m 1
 375 675 l 1
 375 550 l 1
 500 550 l 1
 500 425 l 1
 375 425 l 1
 375 300 l 1
 375 175 l 1
 375 50 l 1
 500 50 l 1
 500 -75 l 1
 375 -75 l 1
 250 -75 l 1
 125 -75 l 1
 125 50 l 1
 250 50 l 1
 250 175 l 1
 250 300 l 1
 250 425 l 1
 125 425 l 1
 125 550 l 1
 250 550 l 1
 250 675 l 1
EndSplineSet
EndChar
StartChar: Icircumflex
Encoding: 206 206 206
Width: 500
Flags: W
HStem: -75 125<125 250 375 500> 425 250<125 250 375 500> 675 125<250 375>
VStem: 125 125<550 675> 250 125<50 425 675 800> 375 125<550 675>
CounterMasks: 1 00
Back
Fore
250 800 m 1
 375 800 l 5
 375 675 l 1
 250 675 l 1
 250 800 l 1
125 675 m 1
 250 675 l 1
 250 550 l 1
 375 550 l 1
 375 675 l 1
 500 675 l 1
 500 550 l 1
 500 425 l 1
 375 425 l 1
 375 300 l 1
 375 175 l 1
 375 50 l 1
 500 50 l 1
 500 -75 l 1
 375 -75 l 1
 250 -75 l 1
 125 -75 l 1
 125 50 l 1
 250 50 l 1
 250 175 l 1
 250 300 l 1
 250 425 l 1
 125 425 l 1
 125 550 l 1
 125 675 l 1
EndSplineSet
EndChar
StartChar: Idieresis
Encoding: 207 207 207
Width: 500
Flags: W
HStem: -75 125<125 250 375 500> 425 125<125 250 375 500> 675 125<125 250 375 500>
VStem: 125 125<675 800> 250 125<50 425> 375 125<675 800>
CounterMasks: 1 00
Back
Fore
375 800 m 1
 500 800 l 5
 500 675 l 1
 375 675 l 1
 375 800 l 1
125 550 m 1
 375 550 l 1
 500 550 l 1
 500 425 l 1
 375 425 l 1
 375 300 l 1
 375 175 l 1
 375 50 l 1
 500 50 l 1
 500 -75 l 1
 375 -75 l 1
 250 -75 l 1
 125 -75 l 1
 125 50 l 1
 250 50 l 1
 250 175 l 1
 250 300 l 1
 250 425 l 1
 125 425 l 1
 125 550 l 1
125 800 m 1
 250 800 l 1
 250 675 l 1
 125 675 l 1
 125 800 l 1
EndSplineSet
EndChar
StartChar: Eth
Encoding: 208 208 208
Width: 500
Flags: W
HStem: -75 127<248 375> 175 125<0 125> 300 126<250 376> 550 125<250 375>
VStem: 125 125<52 175 426 550> 125 250<-75 52 550 675> 376 124<50 300 426 550>
Back
Fore
125 675 m 1xf6
 375 675 l 1xf6
 376 550 l 1
 250 550 l 1
 250 426 l 1xfa
 376 426 l 1
 376 550 l 1
 500 550 l 1
 500 425 l 1
 500 300 l 1
 500 175 l 1
 500 50 l 1
 376 50 l 1
 376 300 l 1
 248 300 l 1
 248 52 l 1
 376 52 l 1
 375 -75 l 1xf6
 250 -75 l 1xfa
 125 -75 l 1
 125 50 l 1xf6
 125 175 l 1xfa
 0 175 l 1
 0 300 l 1
 125 300 l 1
 125 425 l 1xf6
 125 550 l 1xfa
 125 675 l 1xf6
EndSplineSet
EndChar
StartChar: Ntilde
Encoding: 209 209 209
Width: 500
Flags: HW
HStem: -75 21G<125 250> 675 125<125 250>
VStem: 125 125<-75 175> 125 375<175 550> 375 125<50 175>
Back
Fore
125 800 m 1xd0
 375 800 l 1
 375 675 l 1
 500 675 l 1xc8
 500 550 l 1
 500 425 l 1
 500 300 l 1
 500 175 l 1xd0
 500 50 l 1
 375 50 l 1
 375 175 l 1
 250 175 l 1
 250 50 l 1
 250 -75 l 1
 125 -75 l 1
 125 50 l 1
 125 175 l 1xe8
 125 300 l 1
 125 425 l 1
 125 550 l 1xd0
 250 550 l 1
 250 425 l 1
 377.5 425 l 1
 377.5 550 l 5
 250 550 l 1
 250 675 l 1xe0
 125 675 l 1
 125 800 l 1xd0
EndSplineSet
EndChar
StartChar: Ograve
Encoding: 210 210 210
Width: 500
Flags: HW
HStem: -75 21G<250 375> 675 125<125 250>
VStem: 125 375<50 425> 125 125<675 800> 250 125<-75 50 425 675>
Back
Fore
125 800 m 1xd0
 250 800 l 1
 250 675 l 1
 375 675 l 1
 375 425 l 1xd8
 500 425 l 1
 500 50 l 1xe0
 375 50 l 1
 375 -75 l 1
 250 -75 l 1
 250 50 l 1xc8
 125 50 l 1
 125 425 l 1xe0
 250 425 l 1
 250 50 l 1
 375 50 l 1
 375 425 l 1
 250 425 l 5
 250 675 l 1
 125 675 l 1
 125 800 l 1xd0
EndSplineSet
EndChar
StartChar: Oacute
Encoding: 211 211 211
Width: 500
Flags: W
HStem: -75 125<250 375> 675 125<375 500>
VStem: 125 125<50 425> 250 125<-75 50 425 675> 375 125<50 425 675 800>
CounterMasks: 1 00
Back
Fore
375 800 m 1
 500 800 l 1
 500 675 l 1
 375 675 l 1
 375 800 l 1
250 675 m 1
 375 675 l 5
 375 425 l 1
 250 425 l 1
 250 550 l 1
 250 675 l 1
125 425 m 1
 250 425 l 1
 250 175 l 1
 250 50 l 1
 125 50 l 1
 125 175 l 1
 125 300 l 1
 125 425 l 1
375 425 m 1
 500 425 l 1
 500 175 l 1
 500 50 l 1
 375 50 l 1
 375 175 l 1
 375 300 l 1
 375 425 l 1
250 50 m 1
 375 50 l 1
 375 -75 l 1
 250 -75 l 1
 250 50 l 1
EndSplineSet
EndChar
StartChar: Ocircumflex
Encoding: 212 212 212
Width: 500
Flags: W
HStem: -75 125<250 375> 425 125<250 375> 550 125<125 250 375 500> 675 125<250 375>
VStem: 125 125<50 425 550 675> 250 125<-75 50 425 550 675 800> 375 125<50 425 550 675>
CounterMasks: 1 00
Back
Fore
250 800 m 1
 375 800 l 1
 375 675 l 1
 250 675 l 1
 250 800 l 1
125 675 m 1
 250 675 l 1
 250 550 l 1
 125 550 l 1
 125 675 l 1
375 675 m 1
 500 675 l 5
 500 550 l 1
 375 550 l 1
 375 675 l 1
250 550 m 1
 375 550 l 1
 375 425 l 1
 250 425 l 1
 250 550 l 1
125 425 m 1
 250 425 l 1
 250 175 l 1
 250 50 l 1
 125 50 l 1
 125 175 l 1
 125 300 l 1
 125 425 l 1
375 425 m 1
 500 425 l 1
 500 175 l 1
 500 50 l 1
 375 50 l 1
 375 175 l 1
 375 300 l 1
 375 425 l 1
250 50 m 1
 375 50 l 1
 375 -75 l 1
 250 -75 l 1
 250 50 l 1
EndSplineSet
EndChar
StartChar: Otilde
Encoding: 213 213 213
Width: 500
Flags: W
HStem: -75 125<250 375> 550 125<375 500> 675 125<125 250>
VStem: 125 125<50 425> 250 125<-75 50 425 550> 375 125<50 425>
CounterMasks: 1 00
Back
Fore
125 800 m 1
 375 800 l 1
 375 675 l 1
 500 675 l 1
 500 550 l 1
 375 550 l 1
 375 425 l 1
 500 425 l 1
 500 300 l 1
 500 175 l 1
 500 50 l 1
 375 50 l 1
 375 425 l 1
 250 425 l 1
 250 50 l 1
 375 50 l 5
 375 -75 l 1
 250 -75 l 1
 250 50 l 1
 125 50 l 1
 125 175 l 1
 125 300 l 1
 125 425 l 1
 250 425 l 1
 250 550 l 1
 250 675 l 1
 125 675 l 1
 125 800 l 1
EndSplineSet
EndChar
StartChar: Odieresis
Encoding: 214 214 214
Width: 500
Flags: W
HStem: -75 125<250 375> 425 125<250 375> 675 125<125 250 375 500>
VStem: 125 125<50 425 675 800> 250 125<-75 50 425 550> 375 125<50 425 675 800>
CounterMasks: 1 00
Back
Fore
375 800 m 1
 500 800 l 1
 500 675 l 1
 375 675 l 1
 375 800 l 1
250 550 m 1
 375 550 l 1
 375 425 l 1
 250 425 l 1
 250 550 l 1
125 425 m 1
 250 425 l 1
 250 175 l 1
 250 50 l 1
 125 50 l 1
 125 175 l 1
 125 300 l 1
 125 425 l 1
375 425 m 1
 500 425 l 1
 500 175 l 1
 500 50 l 1
 375 50 l 1
 375 175 l 1
 375 300 l 1
 375 425 l 1
250 50 m 1
 375 50 l 5
 375 -75 l 1
 250 -75 l 1
 250 50 l 1
125 800 m 1
 250 800 l 1
 250 675 l 1
 125 675 l 1
 125 800 l 1
EndSplineSet
EndChar
StartChar: multiply
Encoding: 215 215 215
Width: 500
Flags: W
HStem: 50 125<125 250 375 500> 175 125<250 375> 300 125<125 250 375 500>
VStem: 125 125<50 175 300 424> 250 125<175 300> 375 125<50 175 300 425>
CounterMasks: 1 00
Back
Fore
125 425 m 1
 250 424 l 5
 250 300 l 1
 375 300 l 1
 375 425 l 1
 500 425 l 1
 500 300 l 1
 375 300 l 1
 375 175 l 1
 500 175 l 1
 500 50 l 1
 375 50 l 1
 375 175 l 1
 250 175 l 1
 250 50 l 1
 125 50 l 1
 125 175 l 1
 250 175 l 1
 250 300 l 1
 125 300 l 1
 125 425 l 1
EndSplineSet
EndChar
StartChar: Oslash
Encoding: 216 216 216
Width: 500
Flags: HW
HStem: -200 125<125 250> 550 125<250 375> 675 125<375 500>
VStem: 125 375<50 425> 125 125<-200 -75 425 550> 250 125<-75 50 550 675> 375 125<425 550 675 800>
Back
Fore
375 800 m 1xe6
 500 801 l 1
 500 675 l 1
 375 675 l 1
 375 800 l 1xe6
250 675 m 1
 375 675 l 1
 375 550 l 1xec
 250 550 l 1xe8
 250 675 l 1
125 550 m 1
 250 550 l 1
 250 425 l 1xe8
 375 425 l 1
 375 550 l 1
 500 550 l 1xe6
 500 425 l 1
 500 300 l 1
 500 175 l 1
 500 50 l 1xf0
 378 51 l 1
 378 177 l 5
 252 177 l 1
 252 51 l 1
 375 51 l 1
 375 -75 l 1
 250 -75 l 1
 250 -200 l 1
 125 -200 l 1
 125 -75 l 1
 250 -75 l 1
 250 50 l 1xec
 125 50 l 1
 125 175 l 1
 125 300 l 1
 125 425 l 1xf0
 125 550 l 1
EndSplineSet
EndChar
StartChar: Ugrave
Encoding: 217 217 217
Width: 1000
Flags: HW
HStem: -75 21G<125 500> 675 125<125 250>
VStem: 125 375<-75 550> 125 125<675 800> 250 125<550 675>
Back
Fore
125 800 m 1xd0
 250 800 l 1
 250 675 l 1
 375 675 l 1
 375 550 l 1xd8
 500 550 l 1
 500 425 l 1
 500 300 l 1
 500 175 l 1
 500 50 l 1
 500 -75 l 1xe0
 375 -75 l 1
 250 -75 l 1xc8
 125 -75 l 1
 125 50 l 1
 125 175 l 1
 125 300 l 1
 125 425 l 1
 125 550 l 1xe0
 250 550 l 1
 250 50 l 1
 375 50 l 1xc8
 375 550 l 1
 250 550 l 5
 250 675 l 1
 125 675 l 1
 125 800 l 1xd0
EndSplineSet
EndChar
StartChar: Uacute
Encoding: 218 218 218
Width: 1000
Flags: W
HStem: -75 125<250 375> 550 125<250 375> 675 125<375 500>
VStem: 125 125<50 550> 250 125<550 675> 375 125<50 550 675 800>
CounterMasks: 1 00
Back
Fore
375 800 m 1
 500 800 l 1
 500 675 l 1
 375 675 l 1
 375 800 l 1
250 675 m 1
 375 675 l 1
 375 550 l 1
 250 550 l 1
 250 675 l 1
125 550 m 1
 250 550 l 5
 250 300 l 1
 250 175 l 1
 250 50 l 1
 375 50 l 1
 375 175 l 1
 375 300 l 1
 375 425 l 1
 375 550 l 1
 500 550 l 1
 500 425 l 1
 500 300 l 1
 500 175 l 1
 500 50 l 1
 500 -75 l 1
 375 -75 l 1
 250 -75 l 1
 125 -75 l 1
 125 50 l 1
 125 175 l 1
 125 300 l 1
 125 425 l 1
 125 550 l 1
EndSplineSet
EndChar
StartChar: Ucircumflex
Encoding: 219 219 219
Width: 1000
Flags: W
HStem: -75 125<250 375> 550 125<125 250 375 500> 675 125<250 375>
VStem: 125 125<50 425 550 675> 250 125<675 800> 375 125<50 425 550 675>
CounterMasks: 1 00
Back
Fore
250 800 m 1
 375 800 l 5
 375 675 l 1
 250 675 l 1
 250 800 l 1
125 675 m 1
 250 675 l 1
 250 550 l 1
 125 550 l 1
 125 675 l 1
375 675 m 1
 500 675 l 1
 500 550 l 1
 375 550 l 1
 375 675 l 1
125 425 m 1
 250 425 l 1
 250 175 l 1
 250 50 l 1
 375 50 l 1
 375 175 l 1
 375 300 l 1
 375 425 l 1
 500 425 l 1
 500 300 l 1
 500 175 l 1
 500 50 l 1
 500 -75 l 1
 375 -75 l 1
 250 -75 l 1
 125 -75 l 1
 125 50 l 1
 125 175 l 1
 125 300 l 1
 125 425 l 1
EndSplineSet
EndChar
StartChar: Udieresis
Encoding: 220 220 220
Width: 500
Flags: W
HStem: -75 125<250 375> 530 20G<125 250 375 500> 675 125<125 250 375 500>
VStem: 125 125<50 550 675 800> 375 125<50 550 675 800>
Back
Fore
375 800 m 1
 500 800 l 5
 500 675 l 1
 375 675 l 1
 375 800 l 1
125 550 m 1
 250 550 l 1
 250 300 l 1
 250 175 l 1
 250 50 l 1
 375 50 l 1
 375 175 l 1
 375 300 l 1
 375 425 l 1
 375 550 l 1
 500 550 l 1
 500 425 l 1
 500 300 l 1
 500 175 l 1
 500 50 l 1
 500 -75 l 1
 375 -75 l 1
 250 -75 l 1
 125 -75 l 1
 125 50 l 1
 125 175 l 1
 125 300 l 1
 125 425 l 1
 125 550 l 1
125 800 m 1
 250 800 l 1
 250 675 l 1
 125 675 l 1
 125 800 l 1
EndSplineSet
EndChar
StartChar: Yacute
Encoding: 221 221 221
Width: 500
Flags: W
HStem: -75 21G<250 375> 300 250<125 250 375 500> 550 125<250 375> 675 125<375 500>
VStem: 125 125<300 550> 250 125<-75 300 550 675> 375 125<300 550 675 800>
CounterMasks: 1 00
Back
Fore
375 800 m 1
 500 800 l 5
 500 675 l 1
 375 675 l 1
 375 800 l 1
250 675 m 1
 375 675 l 1
 375 550 l 1
 250 550 l 1
 250 675 l 1
125 550 m 1
 250 550 l 1
 250 300 l 1
 125 300 l 1
 125 425 l 1
 125 550 l 1
375 550 m 1
 500 550 l 1
 500 300 l 1
 375 300 l 1
 375 425 l 1
 375 550 l 1
250 300 m 1
 375 300 l 1
 375 50 l 1
 375 -75 l 1
 250 -75 l 1
 250 50 l 1
 250 175 l 1
 250 300 l 1
EndSplineSet
EndChar
StartChar: Thorn
Encoding: 222 222 222
Width: 500
Flags: HW
HStem: -75 125<0 125> 175 125<375 500> 425 125<0 125>
VStem: 0 250<-75 50 425 550> 125 250<50 175 300 425>
CounterMasks: 1 00
Back
Fore
0 550 m 1xf0
 250 550 l 1
 250 425 l 1xf0
 375 425 l 1
 375 300 l 1
 500 300 l 1
 500 175 l 1
 376 176 l 1
 375 300 l 1
 250 300 l 5
 250 176 l 1
 376 176 l 1
 375 50 l 1xe8
 250 50 l 1
 250 -75 l 1xf0
 125 -75 l 1xe8
 0 -75 l 1
 0 50 l 1xf0
 125 50 l 1
 125 175 l 1
 125 300 l 1
 125 425 l 1xe8
 0 425 l 1
 0 550 l 1xf0
EndSplineSet
EndChar
StartChar: germandbls
Encoding: 223 223 223
Width: 500
Flags: HW
HStem: -75 125<0 125> 425 125<375 500> 655 20G<125 375>
VStem: 125 375<50 300 425 550> 125 250<300 425 550 675>
Back
Fore
125 675 m 1xe8
 375 675 l 1
 376 550 l 1
 248 550 l 1
 248 424 l 1xe8
 375 425 l 1
 376 550 l 1
 500 550 l 1
 500 425 l 1xf0
 375 425 l 1
 376 300 l 1
 248 300 l 1
 248 50 l 1xe8
 374 50 l 1
 374 300 l 1
 500 300 l 1
 500 175 l 1
 500 50 l 1
 500 -75 l 1xf0
 375 -75 l 1
 250 -75 l 1
 125 -75 l 1xe8
 0 -75 l 1
 0 50 l 1
 125 50 l 1
 125 175 l 1
 125 300 l 1
 125 425 l 1
 125 550 l 1xf0
 125 675 l 1xe8
EndSplineSet
EndChar
StartChar: agrave
Encoding: 224 224 224
Width: 500
Flags: HW
HStem: -75 21G<250 500> 50 125<125 250> 425 125<125 250> 675 125<125 250>
VStem: 125 125<675 800> 250 250<-75 50 175 300> 250 125<550 675> 375 125<300 425>
Back
Fore
125 800 m 1xf9
 250 800 l 1
 250 675 l 1
 375 675 l 1xf8
 375 550 l 1xf8
 375 425 l 1
 500 425 l 1xf9
 500 300 l 1xf8
 500 175 l 1xf8
 500 50 l 1xf8
 500 -75 l 1xf8
 375 -75 l 1
 250 -75 l 1
 250 50 l 1
 125 50 l 1
 125 175 l 1
 250 175 l 1
 250 50 l 1
 375 50 l 1
 375 175 l 1
 250 175 l 5
 250 300 l 1
 375 300 l 1
 375 425 l 1
 250 425 l 1
 125 425 l 1
 125 550 l 1
 250 550 l 1
 250 675 l 1
 125 675 l 1
 125 800 l 1xf9
EndSplineSet
EndChar
StartChar: aacute
Encoding: 225 225 225
Width: 500
Flags: W
HStem: -75 125<250 375> 50 125<125 250> 175 125<250 375> 425 125<125 250> 675 125<375 500>
VStem: 125 125<50 175> 250 250<-75 50 175 300> 250 125<550 675> 375 125<50 175 300 425 675 800>
Back
Fore
375 800 m 1xfc80
 500 800 l 1
 500 675 l 1xfc80
 375 675 l 1xfc
 375 800 l 1xfc80
250 675 m 1
 375 675 l 1xfc
 375 425 l 1
 250 425 l 1
 125 425 l 1
 125 550 l 1
 250 550 l 1
 250 675 l 1
375 425 m 1xfc80
 500 425 l 1xfc80
 500 175 l 1xfc
 500 50 l 1xfc
 500 -75 l 1xfc
 375 -75 l 1
 250 -75 l 1
 250 50 l 1
 375 50 l 1
 375 175 l 1
 250 175 l 1
 250 300 l 1
 375 300 l 1
 375 425 l 1xfc80
125 175 m 1
 250 175 l 5
 250 50 l 1
 125 50 l 1
 125 175 l 1
EndSplineSet
EndChar
StartChar: acircumflex
Encoding: 226 226 226
Width: 500
Flags: W
HStem: -75 125<250 375> 50 125<125 250> 175 125<250 375> 425 125<250 375> 550 125<375 500> 675 125<250 375>
VStem: 125 125<50 175 550 675> 250 250<-75 50 175 300> 250 125<675 800> 375 125<50 175 300 425 550 675>
Back
Fore
250 800 m 1xfe
 375 800 l 1xfe
 375 675 l 1xfe
 250 675 l 1
 250 800 l 1xfe
125 675 m 1
 250 675 l 1
 250 550 l 1
 375 550 l 1
 375 425 l 1xfe40
 250 425 l 1
 125 425 l 1
 125 550 l 1
 125 675 l 1
375 675 m 1xfe
 500 675 l 1
 500 550 l 1
 375 550 l 1xfe40
 375 675 l 1xfe
375 425 m 1
 500 425 l 5xfe40
 500 175 l 1xfe
 500 50 l 1xfe
 500 -75 l 1xfe
 375 -75 l 1
 250 -75 l 1
 250 50 l 1
 375 50 l 1
 375 175 l 1
 250 175 l 1
 250 300 l 1
 375 300 l 1
 375 425 l 1
125 175 m 1
 250 175 l 1
 250 50 l 1
 125 50 l 1
 125 175 l 1
EndSplineSet
EndChar
StartChar: atilde
Encoding: 227 227 227
Width: 500
Flags: HW
HStem: -75 21G<250 500> 50 125<125 250> 425 125<125 250> 550 125<375 500> 675 125<125 250>
VStem: 125 250<425 550 675 800> 250 250<-75 50 175 300 550 675> 375 125<300 425>
Back
Fore
125 800 m 1xfc
 375 800 l 1
 375 675 l 1xfc
 500 675 l 1
 500 550 l 1xfa
 375 550 l 1
 375 425 l 1
 500 425 l 1xfd
 500 300 l 1
 500 175 l 1
 500 50 l 1
 500 -75 l 1xfa
 375 -75 l 1xf9
 250 -75 l 1
 250 50 l 1xfa
 125 50 l 1
 125 175 l 1xfc
 250 175 l 1
 250 50 l 1
 375 50 l 5
 375 175 l 1
 250 175 l 1
 250 300 l 1xfa
 375 300 l 1xf9
 375 425 l 1xfc
 250 425 l 1xfa
 125 425 l 1
 125 550 l 1xfc
 250 550 l 1
 250 675 l 1xfa
 125 675 l 1
 125 800 l 1xfc
EndSplineSet
EndChar
StartChar: adieresis
Encoding: 228 228 228
Width: 500
Flags: W
HStem: -75 125<250 375> 50 125<125 250> 175 125<250 375> 425 125<125 375> 675 125<125 250 375 500>
VStem: 125 125<50 175 675 797.5> 250 250<-75 50 175 300> 375 125<50 175 300 425 675 800>
Back
Fore
375 800 m 1xfd
 500 800 l 1
 500 675 l 1
 375 675 l 1
 375 800 l 1xfd
125 550 m 1
 375 550 l 1
 375 425 l 1
 250 425 l 1
 125 425 l 1
 125 550 l 1
375 425 m 1
 500 425 l 1xfd
 500 175 l 1xfc
 500 50 l 1xfc
 500 -75 l 1xfc
 375 -75 l 1
 250 -75 l 1
 250 50 l 1
 375 50 l 1
 375 175 l 1
 250 175 l 1
 250 300 l 1
 375 300 l 1
 375 425 l 1
125 175 m 1
 250 175 l 5
 250 50 l 1
 125 50 l 1
 125 175 l 1
125 800 m 1
 250 797.5 l 1
 250 675 l 1
 125 675 l 1
 125 800 l 1
EndSplineSet
EndChar
StartChar: aring
Encoding: 229 229 229
Width: 500
Flags: W
HStem: -75 125<250 375> 50 125<125 250> 175 125<250 375> 425 125<250 375> 550 125<375 500> 675 125<250 375>
VStem: 125 125<50 175 550 675> 250 250<-75 50 175 300> 250 125<675 800> 375 125<50 175 300 425 550 675>
Back
Fore
250 800 m 1xfe
 375 800 l 1xfe
 375 675 l 1xfe
 250 675 l 1
 250 800 l 1xfe
125 675 m 1
 250 675 l 1
 250 550 l 1
 375 550 l 1
 375 425 l 1xfe40
 250 425 l 1
 125 425 l 1
 125 550 l 1
 125 675 l 1
375 675 m 1xfe
 500 675 l 5
 500 550 l 1
 375 550 l 1xfe40
 375 675 l 1xfe
375 425 m 1
 500 425 l 1xfe40
 500 175 l 1xfe
 500 50 l 1xfe
 500 -75 l 1xfe
 375 -75 l 1
 250 -75 l 1
 250 50 l 1
 375 50 l 1
 375 175 l 1
 250 175 l 1
 250 300 l 1
 375 300 l 1
 375 425 l 1
125 175 m 1
 250 175 l 1
 250 50 l 1
 125 50 l 1
 125 175 l 1
EndSplineSet
EndChar
StartChar: ae
Encoding: 230 230 230
Width: 500
Flags: W
HStem: -75 125<125 250 375 500> 50 125<0 125> 175 125<125 250> 300 125<250 375> 425 125<125 250>
VStem: 0 125<50 175> 125 125<175 300 425 550> 250 125<50 175> 375 125<175 300>
Back
Fore
125 550 m 1
 250 550 l 5
 250 425 l 1
 125 425 l 1
 125 550 l 1
250 425 m 1
 500 425 l 1
 500 300 l 1
 500 175 l 1
 375 175 l 1
 375 300 l 1
 250 300 l 1
 250 425 l 1
125 300 m 1
 250 300 l 1
 250 175 l 1
 125 175 l 1
 125 300 l 1
0 175 m 1
 125 175 l 1
 125 50 l 1
 0 50 l 1
 0 175 l 1
250 175 m 1
 375 175 l 1
 375 50 l 1
 500 50 l 1
 500 -75 l 1
 375 -75 l 1
 250 -75 l 1
 125 -75 l 1
 125 50 l 1
 250 50 l 1
 250 175 l 1
EndSplineSet
EndChar
StartChar: ccedilla
Encoding: 231 231 231
Width: 500
Flags: W
HStem: -200 21G<250 375> -75 125<375 500> 425 125<250 500>
VStem: 125 125<50 425> 250 125<-200 -75> 250 250<-75 50 425 550>
Back
Fore
250 550 m 1xf0
 500 550 l 1xf0
 500 425 l 1xf0
 375 425 l 1xf0
 250 425 l 1
 250 550 l 1xf0
125 425 m 1
 250 425 l 5
 250 175 l 1
 250 50 l 1
 125 50 l 1
 125 175 l 1
 125 300 l 1
 125 425 l 1
250 50 m 1
 500 50 l 1xf0
 500 -75 l 1xf0
 375 -75 l 1xf0
 375 -200 l 1xf0
 250 -200 l 1
 250 -75 l 1
 250 50 l 1
EndSplineSet
EndChar
StartChar: egrave
Encoding: 232 232 232
Width: 500
Flags: W
HStem: -75 125<250 500> 175 125<250 375> 425 125<250 375> 550 125<375 500> 675 125<250 375>
VStem: 125 125<50 175 300 425> 250 125<425 550 675 800> 375 125<300 425 550 675>
CounterMasks: 1 00
Back
Fore
250 800 m 1
 375 800 l 1
 375 675 l 1
 250 675 l 1
 250 800 l 1
375 675 m 1
 500 675 l 5
 500 550 l 1
 375 550 l 1
 375 675 l 1
250 550 m 1
 375 550 l 1
 375 425 l 1
 250 425 l 1
 250 550 l 1
125 425 m 1
 250 425 l 1
 250 300 l 1
 375 300 l 1
 375 425 l 1
 500 425 l 1
 500 300 l 1
 500 175 l 1
 375 175 l 1
 250 175 l 1
 250 50 l 1
 375 50 l 1
 500 50 l 1
 500 -75 l 1
 375 -75 l 1
 250 -75 l 1
 250 50 l 1
 125 50 l 1
 125 175 l 1
 125 300 l 1
 125 425 l 1
EndSplineSet
EndChar
StartChar: eacute
Encoding: 233 233 233
Width: 500
Flags: W
HStem: -75 125<250 500> 175 125<250 375> 425 125<250 375> 550 125<125 250> 675 125<250 375>
VStem: 125 125<50 175 300 425 550 675> 250 125<425 550 675 800> 375 125<300 425>
CounterMasks: 1 00
Back
Fore
250 800 m 1
 375 800 l 1
 375 675 l 1
 250 675 l 1
 250 800 l 1
125 675 m 1
 250 675 l 1
 250 550 l 1
 125 550 l 1
 125 675 l 1
250 550 m 1
 375 550 l 5
 375 425 l 1
 250 425 l 1
 250 550 l 1
125 425 m 1
 250 425 l 1
 250 300 l 1
 375 300 l 1
 375 425 l 1
 500 425 l 1
 500 300 l 1
 500 175 l 1
 375 175 l 1
 250 175 l 1
 250 50 l 1
 375 50 l 1
 500 50 l 1
 500 -75 l 1
 375 -75 l 1
 250 -75 l 1
 250 50 l 1
 125 50 l 1
 125 175 l 1
 125 300 l 1
 125 425 l 1
EndSplineSet
EndChar
StartChar: ecircumflex
Encoding: 234 234 234
Width: 500
Flags: W
HStem: -75 125<250 500> 175 125<250 375> 425 125<250 375> 550 125<125 250 375 500> 675 125<250 375>
VStem: 125 125<50 175 300 425 550 675> 250 125<425 550 675 800> 375 125<300 425 550 675>
CounterMasks: 1 00
Back
Fore
250 800 m 1
 375 800 l 1
 375 675 l 1
 250 675 l 1
 250 800 l 1
125 675 m 1
 250 675 l 1
 250 550 l 1
 125 550 l 1
 125 675 l 1
375 675 m 1
 500 675 l 5
 500 550 l 1
 375 550 l 1
 375 675 l 1
250 550 m 1
 375 550 l 1
 375 425 l 1
 250 425 l 1
 250 550 l 1
125 425 m 1
 250 425 l 1
 250 300 l 1
 375 300 l 1
 375 425 l 1
 500 425 l 1
 500 300 l 1
 500 175 l 1
 375 175 l 1
 250 175 l 1
 250 50 l 1
 375 50 l 1
 500 50 l 1
 500 -75 l 1
 375 -75 l 1
 250 -75 l 1
 250 50 l 1
 125 50 l 1
 125 175 l 1
 125 300 l 1
 125 425 l 1
EndSplineSet
EndChar
StartChar: edieresis
Encoding: 235 235 235
Width: 500
Flags: W
HStem: -75 125<250 500> 175 125<250 375> 425 125<250 375> 675 125<125 250 375 500>
VStem: 125 125<50 175 300 425 675 800> 250 125<425 550> 375 125<300 425 675 800>
CounterMasks: 1 00
Back
Fore
375 800 m 1
 500 800 l 5
 500 675 l 1
 375 675 l 1
 375 800 l 1
250 550 m 1
 375 550 l 1
 375 425 l 1
 250 425 l 1
 250 550 l 1
125 425 m 1
 250 425 l 1
 250 300 l 1
 375 300 l 1
 375 425 l 1
 500 425 l 1
 500 300 l 1
 500 175 l 1
 375 175 l 1
 250 175 l 1
 250 50 l 1
 375 50 l 1
 500 50 l 1
 500 -75 l 1
 375 -75 l 1
 250 -75 l 1
 250 50 l 1
 125 50 l 1
 125 175 l 1
 125 300 l 1
 125 425 l 1
125 800 m 1
 250 800 l 1
 250 675 l 1
 125 675 l 1
 125 800 l 1
EndSplineSet
EndChar
StartChar: igrave
Encoding: 236 236 236
Width: 500
Flags: W
HStem: -75 125<125 250 375 500> 300 125<125 250> 550 125<250 375> 675 125<125 250>
VStem: 125 125<675 800> 250 125<50 300 550 675>
Back
Fore
125 425 m 1
 375 425 l 1
 375 300 l 1
 375 175 l 1
 375 50 l 1
 500 50 l 1
 500 -75 l 1
 375 -75 l 1
 250 -75 l 1
 125 -75 l 1
 125 50 l 1
 250 50 l 1
 250 175 l 1
 250 300 l 1
 125 300 l 1
 125 425 l 1
125 800 m 1
 250 800 l 5
 250 675 l 1
 375 675 l 1
 375 550 l 1
 250 550 l 1
 250 675 l 1
 125 675 l 1
 125 800 l 1
EndSplineSet
EndChar
StartChar: iacute
Encoding: 237 237 237
Width: 500
Flags: W
HStem: -75 125<125 250 375 500> 300 125<125 250> 550 125<250 375> 675 125<375 500>
VStem: 250 125<50 300 550 675> 375 125<675 800>
Back
Fore
375 800 m 1
 500 800 l 5
 500 675 l 1
 375 675 l 1
 375 800 l 1
250 675 m 1
 375 675 l 1
 375 550 l 1
 250 550 l 1
 250 675 l 1
125 425 m 1
 375 425 l 1
 375 300 l 1
 375 175 l 1
 375 50 l 1
 500 50 l 1
 500 -75 l 1
 375 -75 l 1
 250 -75 l 1
 125 -75 l 1
 125 50 l 1
 250 50 l 1
 250 175 l 1
 250 300 l 1
 125 300 l 1
 125 425 l 1
EndSplineSet
EndChar
StartChar: icircumflex
Encoding: 238 238 238
Width: 500
Flags: W
HStem: -75 125<125 250 375 500> 300 125<125 250> 550 125<125 250 375 500> 675 125<250 375>
VStem: 125 125<550 675> 250 125<50 300 675 800> 375 125<550 675>
CounterMasks: 1 00
Back
Fore
250 800 m 1
 375 800 l 1
 375 675 l 1
 250 675 l 1
 250 800 l 1
125 675 m 1
 250 675 l 1
 250 550 l 1
 125 550 l 1
 125 675 l 1
375 675 m 1
 500 675 l 5
 500 550 l 1
 375 550 l 1
 375 675 l 1
125 425 m 1
 375 425 l 1
 375 300 l 1
 375 175 l 1
 375 50 l 1
 500 50 l 1
 500 -75 l 1
 375 -75 l 1
 250 -75 l 1
 125 -75 l 1
 125 50 l 1
 250 50 l 1
 250 175 l 1
 250 300 l 1
 125 300 l 1
 125 425 l 1
EndSplineSet
EndChar
StartChar: idieresis
Encoding: 239 239 239
Width: 500
Flags: W
HStem: -75 125<125 250 375 500> 300 125<125 250> 550 125<125 250 375 500>
VStem: 125 125<550 675> 250 125<50 300> 375 125<550 675>
CounterMasks: 1 00
Back
Fore
375 675 m 1
 500 676 l 5
 500 550 l 1
 375 550 l 1
 375 675 l 1
125 425 m 1
 375 425 l 1
 375 300 l 1
 375 175 l 1
 375 50 l 1
 500 50 l 1
 500 -75 l 1
 375 -75 l 1
 250 -75 l 1
 125 -75 l 1
 125 50 l 1
 250 50 l 1
 250 175 l 1
 250 300 l 1
 125 300 l 1
 125 425 l 1
125 675 m 1
 250 676 l 1
 250 550 l 1
 125 550 l 1
 125 675 l 1
EndSplineSet
EndChar
StartChar: eth
Encoding: 240 240 240
Width: 500
Flags: HW
HStem: -75 21G<250 375> 550 125<125 250> 675 125<375 500>
VStem: 125 375<50 425> 250 125<-75 50> 250 250<425 550 675 800>
Back
Fore
250 800 m 1xe4
 500 800 l 1
 500 675 l 1xe4
 375 675 l 1
 375 550 l 1xe8
 500 550 l 1xe4
 500 425 l 1
 500 300 l 1
 500 175 l 1
 500 50 l 1xf0
 375 50 l 1
 375 -75 l 1
 250 -75 l 1
 250 50 l 1xe8
 125 50 l 1
 125 175 l 1
 125 300 l 1
 125 425 l 1xf0
 250 425 l 1
 250 50 l 1
 375 50 l 1
 375 425 l 1
 250 425 l 5
 250 550 l 1xe4
 125 550 l 1
 125 675 l 1xf0
 250 675 l 1
 250 800 l 1xe4
EndSplineSet
EndChar
StartChar: ntilde
Encoding: 241 241 241
Width: 500
Flags: W
HStem: -75 21G<125 250 375 500> 550 125<375 500> 675 125<125 250>
VStem: 125 125<-75 425> 125 250<425 550 675 800> 375 125<-75 425>
Back
Fore
125 800 m 1xec
 375 800 l 1
 375 675 l 1
 500 675 l 1
 500 550 l 1
 375 550 l 1
 375 425 l 1
 500 425 l 1
 500 300 l 1
 500 175 l 1
 500 50 l 1
 500 -75 l 1
 375 -75 l 1
 375 50 l 1
 375 175 l 1
 375 300 l 1
 375 425 l 1xec
 250 425 l 1
 250 300 l 1
 250 175 l 1
 250 50 l 1
 250 -75 l 1
 125 -75 l 1
 125 50 l 1
 125 175 l 1
 125 300 l 1
 125 425 l 1xf4
 125 550 l 1xec
 250 550 l 1
 250 675 l 1xf4
 125 675 l 1
 125 800 l 1xec
EndSplineSet
EndChar
StartChar: ograve
Encoding: 242 242 242
Width: 500
Flags: W
HStem: -75 125<250 375> 675 125<125 250>
VStem: 125 125<50 425 675 800> 250 125<-75 50 425 675> 375 125<50 425>
CounterMasks: 1 00
Back
Fore
125 800 m 1
 250 800 l 1
 250 675 l 1
 375 675 l 1
 375 550 l 1
 375 425 l 1
 500 425 l 1
 500 300 l 1
 500 175 l 1
 500 50 l 1
 375 50 l 1
 375 425 l 1
 250 425 l 1
 250 50 l 1
 375 50 l 5
 375 -75 l 1
 250 -75 l 1
 250 50 l 1
 125 50 l 1
 125 175 l 1
 125 300 l 1
 125 425 l 1
 250 425 l 1
 250 550 l 1
 250 675 l 1
 125 675 l 1
 125 800 l 1
EndSplineSet
EndChar
StartChar: oacute
Encoding: 243 243 243
Width: 500
Flags: W
HStem: -75 125<250 375> 675 125<375 500>
VStem: 125 125<50 425> 250 125<-75 50 425 675> 375 125<50 425 675 800>
CounterMasks: 1 00
Back
Fore
375 800 m 1
 500 800 l 1
 500 675 l 1
 375 675 l 1
 375 800 l 1
250 675 m 1
 375 675 l 1
 375 425 l 1
 250 425 l 1
 250 550 l 1
 250 675 l 1
125 425 m 1
 250 425 l 1
 250 175 l 1
 250 50 l 1
 125 50 l 1
 125 175 l 1
 125 300 l 1
 125 425 l 1
375 425 m 1
 500 425 l 5
 500 175 l 1
 500 50 l 1
 375 50 l 1
 375 175 l 1
 375 300 l 1
 375 425 l 1
250 50 m 1
 375 50 l 1
 375 -75 l 1
 250 -75 l 1
 250 50 l 1
EndSplineSet
EndChar
StartChar: ocircumflex
Encoding: 244 244 244
Width: 500
Flags: W
HStem: -75 125<250 375> 425 125<250 375> 550 125<125 250 375 500> 675 125<250 375>
VStem: 125 125<50 425 550 675> 250 125<-75 50 425 550 675 800> 375 125<50 425 550 675>
CounterMasks: 1 00
Back
Fore
250 800 m 1
 375 800 l 5
 375 675 l 1
 250 675 l 1
 250 800 l 1
125 675 m 1
 250 675 l 1
 250 550 l 1
 125 550 l 1
 125 675 l 1
375 675 m 1
 500 675 l 1
 500 550 l 1
 375 550 l 1
 375 675 l 1
250 550 m 1
 375 550 l 1
 375 425 l 1
 250 425 l 1
 250 550 l 1
125 425 m 1
 250 425 l 1
 250 175 l 1
 250 50 l 1
 125 50 l 1
 125 175 l 1
 125 300 l 1
 125 425 l 1
375 425 m 1
 500 425 l 1
 500 175 l 1
 500 50 l 1
 375 50 l 1
 375 175 l 1
 375 300 l 1
 375 425 l 1
250 50 m 1
 375 50 l 1
 375 -75 l 1
 250 -75 l 1
 250 50 l 1
EndSplineSet
EndChar
StartChar: otilde
Encoding: 245 245 245
Width: 500
Flags: W
HStem: -75 125<250 375> 550 125<375 500> 675 125<125 250>
VStem: 125 125<50 425> 250 125<-75 50 425 550> 375 125<50 425>
CounterMasks: 1 00
Back
Fore
125 800 m 1
 375 800 l 1
 375 675 l 1
 500 675 l 1
 500 550 l 1
 375 550 l 1
 375 425 l 1
 500 425 l 1
 500 300 l 1
 500 175 l 1
 500 50 l 1
 375 50 l 1
 375 425 l 1
 250 425 l 1
 250 50 l 1
 375 50 l 5
 375 -75 l 1
 250 -75 l 1
 250 50 l 1
 125 50 l 1
 125 175 l 1
 125 300 l 1
 125 425 l 1
 250 425 l 1
 250 550 l 1
 250 675 l 1
 125 675 l 1
 125 800 l 1
EndSplineSet
EndChar
StartChar: odieresis
Encoding: 246 246 246
Width: 500
Flags: W
HStem: -75 125<250 375> 425 125<250 375> 675 125<125 250 375 500>
VStem: 125 125<50 425 675 800> 250 125<-75 50 425 550> 375 125<50 425 675 800>
CounterMasks: 1 00
Back
Fore
375 800 m 1
 500 800 l 5
 500 675 l 1
 375 675 l 1
 375 800 l 1
250 550 m 1
 375 550 l 1
 375 425 l 1
 250 425 l 1
 250 550 l 1
125 425 m 1
 250 425 l 1
 250 175 l 1
 250 50 l 1
 125 50 l 1
 125 175 l 1
 125 300 l 1
 125 425 l 1
375 425 m 1
 500 425 l 1
 500 175 l 1
 500 50 l 1
 375 50 l 1
 375 175 l 1
 375 300 l 1
 375 425 l 1
250 50 m 1
 375 50 l 1
 375 -75 l 1
 250 -75 l 1
 250 50 l 1
125 800 m 1
 250 800 l 1
 250 675 l 1
 125 675 l 1
 125 800 l 1
EndSplineSet
EndChar
StartChar: divide
Encoding: 247 247 247
Width: 500
Flags: W
HStem: 50 125<250 375> 300 125<125 500> 550 125<250 375>
VStem: 250 125<50 175 550 675>
CounterMasks: 1 00
Back
Fore
250 175 m 1
 375 175 l 5
 375 50 l 1
 250 50 l 1
 250 175 l 1
250 675 m 1
 375 675 l 1
 375 550 l 1
 250 550 l 1
 250 675 l 1
125 425 m 1
 375 425 l 1
 500 425 l 1
 500 300 l 1
 375 300 l 1
 250 300 l 1
 125 300 l 1
 125 425 l 1
EndSplineSet
EndChar
StartChar: oslash
Encoding: 248 248 248
Width: 500
Flags: W
HStem: -200 125<125 250> -75 125<250 375> 175 125<250 375> 425 125<250 375> 550 125<375 500>
VStem: 125 125<-200 -75 50 175 300 425> 250 125<-75 50 425 550> 375 125<50 175 300 425 550 675>
CounterMasks: 1 00
Back
Fore
375 675 m 1
 500 675 l 1
 500 550 l 1
 375 550 l 1
 375 675 l 1
250 550 m 1
 375 550 l 1
 375 425 l 1
 250 425 l 1
 250 550 l 1
125 425 m 1
 250 425 l 1
 250 300 l 1
 375 300 l 1
 375 425 l 1
 500 425 l 1
 500 300 l 1
 500 175 l 1
 500 50 l 1
 375 50 l 1
 375 -75 l 1
 250 -75 l 1
 250 -200 l 1
 125 -200 l 1
 125 -75 l 1
 250 -75 l 1
 250 50 l 1
 375 50 l 1
 375 175 l 1
 250 175 l 5
 250 50 l 1
 125 50 l 1
 125 175 l 1
 125 300 l 1
 125 425 l 1
EndSplineSet
EndChar
StartChar: ugrave
Encoding: 249 249 249
Width: 500
Flags: HW
HStem: -75 21G<125 500> 550 125<125 250>
VStem: 125 375<-75 425> 125 125<550 675> 250 125<425 550>
Back
Fore
125 675 m 1xd0
 250 676 l 1
 250 550 l 1
 374 550 l 1
 374 424 l 1xd8
 500 425 l 1
 500 300 l 1
 500 175 l 1
 500 50 l 1
 500 -75 l 1xe0
 375 -75 l 1
 250 -75 l 1xc8
 125 -75 l 1
 125 50 l 1
 125 175 l 1
 125 300 l 1
 125 425 l 1xe0
 250 424 l 1
 250 50 l 1
 374 50 l 1xc8
 374 424 l 1
 250 424 l 1
 250 550 l 1
 125 550 l 1
 125 675 l 1xd0
EndSplineSet
EndChar
StartChar: uacute
Encoding: 250 250 250
Width: 500
Flags: W
HStem: -75 125<250 375> 425 125<250 375> 550 125<375 500>
VStem: 125 125<50 425> 250 125<425 550> 375 125<50 425 550 675>
CounterMasks: 1 00
Back
Fore
375 675 m 1
 500 676 l 5
 500 550 l 1
 375 550 l 1
 375 675 l 1
250 550 m 1
 375 550 l 1
 375 425 l 1
 250 425 l 1
 250 550 l 1
125 425 m 1
 250 425 l 1
 250 175 l 1
 250 50 l 1
 375 50 l 1
 375 175 l 1
 375 300 l 1
 375 425 l 1
 500 425 l 1
 500 300 l 1
 500 175 l 1
 500 50 l 1
 500 -75 l 1
 375 -75 l 1
 250 -75 l 1
 125 -75 l 1
 125 50 l 1
 125 175 l 1
 125 300 l 1
 125 425 l 1
EndSplineSet
EndChar
StartChar: ucircumflex
Encoding: 251 251 251
Width: 500
Flags: W
HStem: -75 125<250 375> 550 125<125 250 375 500> 675 125<250 375>
VStem: 125 125<50 425 550 675> 250 125<675 800> 375 125<50 425 550 675>
CounterMasks: 1 00
Back
Fore
250 800 m 1
 375 800 l 1
 375 675 l 1
 250 675 l 1
 250 800 l 1
125 675 m 1
 250 675 l 1
 250 550 l 1
 125 550 l 1
 125 675 l 1
375 675 m 1
 500 675 l 1
 500 550 l 1
 375 550 l 1
 375 675 l 1
125 425 m 1
 250 425 l 5
 250 175 l 1
 250 50 l 1
 375 50 l 1
 375 175 l 1
 375 300 l 1
 375 425 l 1
 500 425 l 1
 500 300 l 1
 500 175 l 1
 500 50 l 1
 500 -75 l 1
 375 -75 l 1
 250 -75 l 1
 125 -75 l 1
 125 50 l 1
 125 175 l 1
 125 300 l 1
 125 425 l 1
EndSplineSet
EndChar
StartChar: udieresis
Encoding: 252 252 252
Width: 500
Flags: W
HStem: -75 125<250 375> 550 125<125 250 375 500>
VStem: 125 125<50 424 550 675> 375 125<50 425 550 675>
Back
Fore
375 675 m 1
 500 676 l 5
 500 550 l 1
 375 550 l 1
 375 675 l 1
125 425 m 1
 250 424 l 1
 250 175 l 1
 250 50 l 1
 375 50 l 1
 375 175 l 1
 375 300 l 1
 375 425 l 1
 500 425 l 1
 500 300 l 1
 500 175 l 1
 500 50 l 1
 500 -75 l 1
 375 -75 l 1
 250 -75 l 1
 125 -75 l 1
 125 50 l 1
 125 175 l 1
 125 300 l 1
 125 425 l 1
125 675 m 1
 250 676 l 1
 250 550 l 1
 125 550 l 1
 125 675 l 1
EndSplineSet
EndChar
StartChar: yacute
Encoding: 253 253 253
Width: 500
Flags: W
HStem: -200 125<125 375> 50 125<250 375> 550 125<250 375> 675 125<375 500>
VStem: 125 125<175 550> 250 125<550 675> 375 125<-75 50 175 549 675 800>
CounterMasks: 1 00
Back
Fore
375 800 m 1
 500 801 l 5
 500 675 l 1
 375 675 l 1
 375 800 l 1
250 675 m 1
 375 675 l 1
 375 550 l 1
 250 550 l 1
 250 675 l 1
125 550 m 1
 250 550 l 1
 250 300 l 1
 250 175 l 1
 125 175 l 1
 125 300 l 1
 125 425 l 1
 125 550 l 1
375 550 m 1
 500 549 l 1
 500 300 l 1
 500 175 l 1
 500 50 l 1
 500 -75 l 1
 375 -75 l 1
 375 50 l 1
 250 50 l 1
 250 175 l 1
 375 175 l 1
 375 300 l 1
 375 425 l 1
 375 550 l 1
125 -75 m 1
 375 -75 l 1
 375 -200 l 1
 250 -200 l 1
 125 -200 l 1
 125 -75 l 1
EndSplineSet
EndChar
StartChar: thorn
Encoding: 254 254 254
Width: 500
Flags: HW
HStem: -75 125<0 125> 550 125<0 125>
VStem: 0 250<-75 50 550 675> 125 250<50 175 425 550>
Back
Fore
0 675 m 1xe0
 250 675 l 1
 250 550 l 1xe0
 375 550 l 1
 376 424 l 1
 248 424 l 5
 248 175 l 1
 376 176 l 1
 376 424 l 1
 500 425 l 1
 500 300 l 1
 500 175 l 1
 375 175 l 1
 375 50 l 1xd0
 250 50 l 1
 250 -75 l 1xe0
 125 -75 l 1xd0
 0 -75 l 1
 0 50 l 1xe0
 125 50 l 1
 125 175 l 1
 125 300 l 1
 125 425 l 1
 125 550 l 1xd0
 0 550 l 1
 0 675 l 1xe0
EndSplineSet
EndChar
StartChar: ydieresis
Encoding: 255 255 255
Width: 500
Flags: W
HStem: -200 125<125 375> 50 125<250 375> 530 20G<125 2605> 675 125<125 249 375 500>
VStem: 125 124<175 549 675 800> 375 125<-75 50 175 549 675 800>
Back
Fore
375 800 m 1
 500 801 l 5
 500 675 l 1
 375 675 l 1
 375 800 l 1
125 550 m 1
 249 549 l 1
 250 300 l 1
 250 175 l 1
 125 175 l 1
 125 300 l 1
 125 425 l 1
 125 550 l 1
375 550 m 1
 500 549 l 1
 500 300 l 1
 500 175 l 1
 500 50 l 1
 500 -75 l 1
 375 -75 l 1
 375 50 l 1
 250 50 l 1
 250 175 l 1
 375 175 l 1
 375 300 l 1
 375 425 l 1
 375 550 l 1
125 -75 m 1
 375 -75 l 1
 375 -200 l 1
 250 -200 l 1
 125 -200 l 1
 125 -75 l 1
125 800 m 1
 249 801 l 1
 250 675 l 1
 125 675 l 1
 125 800 l 1
EndSplineSet
EndChar
